<svg xmlns="http://www.w3.org/2000/svg" width="35" height="305" viewBox="0 0 35 305">
  <g id="Group_1955" data-name="Group 1955" transform="translate(-150 -3212)">
    <circle id="Ellipse_123" data-name="Ellipse 123" cx="2.5" cy="2.5" r="2.5" transform="translate(150 3212)" fill="#00014d"/>
    <circle id="Ellipse_123-2" data-name="Ellipse 123" cx="2.5" cy="2.5" r="2.5" transform="translate(180 3212)" fill="#00014d"/>
    <circle id="Ellipse_123-3" data-name="Ellipse 123" cx="2.5" cy="2.5" r="2.5" transform="translate(150 3242)" fill="#00014d"/>
    <circle id="Ellipse_123-4" data-name="Ellipse 123" cx="2.5" cy="2.5" r="2.5" transform="translate(180 3242)" fill="#00014d"/>
    <circle id="Ellipse_123-5" data-name="Ellipse 123" cx="2.5" cy="2.5" r="2.5" transform="translate(150 3272)" fill="#00014d"/>
    <circle id="Ellipse_123-6" data-name="Ellipse 123" cx="2.5" cy="2.5" r="2.5" transform="translate(180 3272)" fill="#00014d"/>
    <circle id="Ellipse_123-7" data-name="Ellipse 123" cx="2.5" cy="2.5" r="2.5" transform="translate(150 3302)" fill="#00014d"/>
    <circle id="Ellipse_123-8" data-name="Ellipse 123" cx="2.5" cy="2.5" r="2.5" transform="translate(180 3302)" fill="#00014d"/>
    <circle id="Ellipse_123-9" data-name="Ellipse 123" cx="2.5" cy="2.5" r="2.5" transform="translate(150 3332)" fill="#00014d"/>
    <circle id="Ellipse_123-10" data-name="Ellipse 123" cx="2.5" cy="2.5" r="2.5" transform="translate(180 3332)" fill="#00014d"/>
    <circle id="Ellipse_123-11" data-name="Ellipse 123" cx="2.5" cy="2.5" r="2.5" transform="translate(150 3362)" fill="#00014d"/>
    <circle id="Ellipse_123-12" data-name="Ellipse 123" cx="2.5" cy="2.5" r="2.5" transform="translate(180 3362)" fill="#00014d"/>
    <circle id="Ellipse_123-13" data-name="Ellipse 123" cx="2.5" cy="2.5" r="2.5" transform="translate(150 3392)" fill="#00014d"/>
    <circle id="Ellipse_123-14" data-name="Ellipse 123" cx="2.5" cy="2.5" r="2.5" transform="translate(180 3392)" fill="#00014d"/>
    <circle id="Ellipse_123-15" data-name="Ellipse 123" cx="2.5" cy="2.5" r="2.5" transform="translate(150 3422)" fill="#00014d"/>
    <circle id="Ellipse_123-16" data-name="Ellipse 123" cx="2.5" cy="2.5" r="2.5" transform="translate(180 3422)" fill="#00014d"/>
    <circle id="Ellipse_123-17" data-name="Ellipse 123" cx="2.5" cy="2.5" r="2.5" transform="translate(150 3452)" fill="#00014d"/>
    <circle id="Ellipse_123-18" data-name="Ellipse 123" cx="2.5" cy="2.5" r="2.5" transform="translate(180 3452)" fill="#00014d"/>
    <circle id="Ellipse_123-19" data-name="Ellipse 123" cx="2.5" cy="2.5" r="2.5" transform="translate(150 3482)" fill="#00014d"/>
    <circle id="Ellipse_123-20" data-name="Ellipse 123" cx="2.5" cy="2.5" r="2.5" transform="translate(180 3482)" fill="#00014d"/>
    <circle id="Ellipse_123-21" data-name="Ellipse 123" cx="2.5" cy="2.5" r="2.5" transform="translate(150 3512)" fill="#00014d"/>
    <circle id="Ellipse_123-22" data-name="Ellipse 123" cx="2.5" cy="2.5" r="2.5" transform="translate(180 3512)" fill="#00014d"/>
  </g>
</svg>
