<svg xmlns="http://www.w3.org/2000/svg" xmlns:xlink="http://www.w3.org/1999/xlink" width="1120" height="640" viewBox="0 0 1120 640">
  <defs>
    <clipPath id="clip-path">
      <rect id="Rectangle_2167" data-name="Rectangle 2167" width="1120" height="640" transform="translate(-0.1 -44)" fill="#fff"/>
    </clipPath>
    <linearGradient id="linear-gradient" x1="0.5" x2="0.5" y2="1" gradientUnits="objectBoundingBox">
      <stop offset="0" stop-color="#fff" stop-opacity="0"/>
      <stop offset="1" stop-color="#fff"/>
    </linearGradient>
  </defs>
  <g id="Mask_Group_109" data-name="Mask Group 109" transform="translate(0.1 44)" clip-path="url(#clip-path)">
    <g id="Group_1648" data-name="Group 1648" transform="translate(-132.941 -376.371)">
      <g id="Group_1610" data-name="Group 1610" transform="translate(0)">
        <path id="Path_1513" data-name="Path 1513" d="M168.116,1023.523,1790.207,94.7v713.52L778.741,1402.193Z" transform="translate(-168.116 34.603)" fill="#f2f2f2"/>
        <g id="Group_1607" data-name="Group 1607" transform="translate(797.602 722.32)">
          <path id="Path_1514" data-name="Path 1514" d="M449.846,718.13l797.029-462.389Z" transform="translate(-210.01 -255.741)" fill="#f2f2f2"/>
          <rect id="Rectangle_2162" data-name="Rectangle 2162" width="921.444" height="4.683" transform="translate(0 600.918) rotate(-30.071)" fill="#414242"/>
        </g>
        <g id="Group_1608" data-name="Group 1608" transform="translate(96.761 532.778)">
          <path id="Path_1515" data-name="Path 1515" d="M449.846,718.13l797.029-462.389Z" transform="translate(-448.477 -254.054)" fill="#f2f2f2"/>
          <rect id="Rectangle_2163" data-name="Rectangle 2163" width="921.444" height="4.683" transform="translate(0 461.714) rotate(-30.071)" fill="#414242"/>
        </g>
        <g id="Group_1609" data-name="Group 1609" transform="translate(874.671 87.227)">
          <path id="Path_1516" data-name="Path 1516" d="M449.846,718.13l797.029-462.389Z" transform="translate(-448.477 -254.054)" fill="#f2f2f2"/>
          <rect id="Rectangle_2164" data-name="Rectangle 2164" width="921.444" height="4.683" transform="translate(0 461.714) rotate(-30.071)" fill="#414242"/>
        </g>
        <rect id="Rectangle_2165" data-name="Rectangle 2165" width="1595.557" height="309.478" transform="translate(1258.863 1595.557) rotate(-90)" fill="url(#linear-gradient)"/>
        <rect id="Rectangle_2166" data-name="Rectangle 2166" width="1858.071" height="260.106" transform="translate(96.815 738.171)" fill="url(#linear-gradient)"/>
      </g>
      <g id="Group_1616" data-name="Group 1616" transform="translate(580.901 407.981)">
        <path id="Path_1517" data-name="Path 1517" d="M809.939,308.8l-84.447,48.759a64.2,64.2,0,0,1-64.19,0L576.854,308.8a17.86,17.86,0,0,1,0-30.933l107.611-62.127a17.847,17.847,0,0,1,17.862,0l107.611,62.127A17.86,17.86,0,0,1,809.939,308.8Z" transform="translate(-462.147 75.643)" fill="#d5d5d5"/>
        <path id="Path_1518" data-name="Path 1518" d="M799.939,314.58l-84.447,48.759a64.237,64.237,0,0,1-64.19,0L566.855,314.58a17.86,17.86,0,0,1,0-30.933l107.611-62.135a17.89,17.89,0,0,1,17.862,0l107.611,62.135A17.86,17.86,0,0,1,799.939,314.58Z" transform="translate(-541.86 121.723)" fill="#d5d5d5"/>
        <g id="Group_1615" data-name="Group 1615" transform="translate(0)">
          <g id="Group_1611" data-name="Group 1611" transform="translate(111.882 130.784)">
            <path id="Path_1519" data-name="Path 1519" d="M792.6,260.585,680.73,196,568.859,260.585h0V389.762L680.729,454.35V325.5Z" transform="translate(-566.596 -193.41)" fill="#d5d5d5"/>
            <path id="Path_1520" data-name="Path 1520" d="M796.846,261.594,682.739,195.708,568.965,261.4l-.341.2h0l-.018,2.575.018.009V393.346L680.5,457.94h0l2.243,1.292,2.243-1.292h0L795.724,394l1.121-.655V264.177h.009ZM682.739,200.885l52.572,30.35-107.387,62-52.581-30.35ZM680.5,452.773l-107.387-62.01V266.77L680.5,328.762Zm47.773-154.181-45.53,26.295-52.581-30.359,107.4-62,52.572,30.359Z" transform="translate(-568.606 -195.708)"/>
            <path id="Path_1521" data-name="Path 1521" d="M603.645,222.028l-20.751-11.977a6.39,6.39,0,0,0-6.549-.35c-2.153,1.247-3.391,3.885-3.391,7.258,0,5.643,3.374,12.022,7.7,14.507L601.4,243.451a7.529,7.529,0,0,0,3.733,1.095,5.572,5.572,0,0,0,2.817-.754c2.153-1.247,3.391-3.885,3.391-7.258C611.342,230.891,607.96,224.522,603.645,222.028Zm2.063,17.889c-.628.35-1.57-.072-2.063-.35l-20.751-11.986c-2.96-1.7-5.455-6.567-5.455-10.622,0-2,.619-3.068,1.148-3.373.637-.377,1.57.054,2.063.35l1.427.826c.52,4.862,3.4,9.94,7.025,12.03l17.719,10.227C606.722,238.678,606.211,239.62,605.708,239.916Zm.835-5.652-16.31-9.4c-2.539-1.471-4.746-5-5.607-8.63l16.776,9.68C603.825,227.312,605.852,230.819,606.543,234.264Z" transform="translate(-533.947 -90.113)" fill="#414242"/>
            <path id="Path_1522" data-name="Path 1522" d="M613.774,213.756a3.5,3.5,0,0,0-3.615.2l-16.525,9.536c-2.449,1.417-4.37,5.042-4.37,8.245v17.727a4.461,4.461,0,0,0,1.885,4.046,3.09,3.09,0,0,0,1.534.4,4.093,4.093,0,0,0,2.072-.61l16.526-9.537h0c2.449-1.418,4.369-5.042,4.369-8.245V217.8A4.446,4.446,0,0,0,613.774,213.756Z" transform="translate(-403.934 -55.143)" fill="#4183db"/>
          </g>
          <g id="Group_1612" data-name="Group 1612" transform="translate(0 195.53)">
            <path id="Path_1523" data-name="Path 1523" d="M780.129,267.8l-111.87-64.588L556.387,267.8h0V396.979l111.871,64.588V332.721Z" transform="translate(-554.125 -200.621)" fill="#1f5295"/>
            <path id="Path_1524" data-name="Path 1524" d="M556.387,339.643l111.871,64.589V275.385l-111.87-64.917h0Z" transform="translate(-554.123 -142.801)" fill="#113058"/>
            <path id="Path_1525" data-name="Path 1525" d="M784.384,268.819,670.268,202.925,556.494,268.613l-.34.206h0l-.018,2.575.018.009V400.572l111.872,64.594h0l2.243,1.292,2.243-1.292h0l110.751-63.939,1.121-.655V271.4h0ZM670.268,208.1,722.85,238.46l-107.4,62-52.581-30.35Zm-2.243,251.888-107.387-62v-124l107.387,62ZM715.8,305.817,670.268,332.1l-52.581-30.35,107.4-62,52.573,30.359Z" transform="translate(-556.135 -202.925)"/>
            <path id="Path_1526" data-name="Path 1526" d="M591.174,229.25l-20.751-11.986a6.409,6.409,0,0,0-6.549-.35c-2.154,1.247-3.392,3.894-3.392,7.267,0,5.643,3.383,12.013,7.7,14.507l20.751,11.977a7.434,7.434,0,0,0,3.732,1.095,5.654,5.654,0,0,0,2.817-.745c2.154-1.247,3.392-3.894,3.392-7.258C598.872,238.114,595.49,231.735,591.174,229.25Zm2.063,17.88c-.627.359-1.57-.063-2.063-.35L570.423,234.8c-2.961-1.7-5.455-6.576-5.455-10.622,0-2.01.619-3.077,1.149-3.382.637-.377,1.57.063,2.063.35l1.435.834c.511,4.862,3.392,9.94,7.025,12.03l17.709,10.218C594.251,245.9,593.74,246.843,593.237,247.13Z" transform="translate(-521.476 -97.327)"/>
            <path id="Path_1527" data-name="Path 1527" d="M601.295,220.966a3.524,3.524,0,0,0-3.615.206l-16.525,9.536c-2.44,1.409-4.36,5.042-4.36,8.245v17.719a4.462,4.462,0,0,0,1.875,4.055,3.09,3.09,0,0,0,1.534.4,4.071,4.071,0,0,0,2.073-.61l16.525-9.536h.008c2.441-1.418,4.361-5.042,4.361-8.254V225.021A4.453,4.453,0,0,0,601.295,220.966Z" transform="translate(-391.455 -62.353)" fill="#1f5295"/>
          </g>
          <g id="Group_1613" data-name="Group 1613" transform="translate(111.872)">
            <path id="Path_1528" data-name="Path 1528" d="M792.6,246.007l-111.87-64.588-111.87,64.588h0V375.184l111.87,64.588V310.926Z" transform="translate(-566.596 -178.83)" fill="#4183db"/>
            <path id="Path_1529" data-name="Path 1529" d="M568.855,317.795l111.87,64.589V253.536l-111.87-64.918h0Z" transform="translate(-566.611 -121.439)" fill="#1f5295"/>
            <path id="Path_1530" data-name="Path 1530" d="M796.845,247.016,682.738,181.13,568.964,246.818l-.341.2h0l-.018,2.575.018.009V378.768L680.5,443.362h0l2.243,1.292,2.243-1.292h0l110.742-63.939,1.121-.655V249.6h0ZM682.738,186.306l52.572,30.359L627.923,278.657l-52.58-30.35ZM680.5,438.194l-107.387-62v-124L680.5,314.184Zm47.772-154.172-45.53,26.286-52.581-30.359,107.387-62,52.581,30.359Z" transform="translate(-568.605 -181.13)"/>
            <path id="Path_1531" data-name="Path 1531" d="M603.652,207.446,582.9,195.47a6.409,6.409,0,0,0-6.549-.35c-2.153,1.247-3.4,3.885-3.4,7.258,0,5.643,3.382,12.022,7.706,14.507l20.751,11.986a7.527,7.527,0,0,0,3.731,1.094,5.571,5.571,0,0,0,2.817-.753c2.153-1.247,3.391-3.885,3.391-7.258C611.349,216.31,607.967,209.94,603.652,207.446Zm2.063,17.889a2.362,2.362,0,0,1-2.063-.35L582.9,213c-2.96-1.7-5.463-6.567-5.463-10.622,0-2,.619-3.068,1.157-3.373.637-.377,1.57.054,2.063.35l1.426.825c.521,4.862,3.4,9.94,7.025,12.039l17.719,10.218C606.729,224.106,606.217,225.039,605.715,225.335Z" transform="translate(-533.953 -75.532)"/>
            <path id="Path_1532" data-name="Path 1532" d="M613.773,199.178a3.5,3.5,0,0,0-3.616.2l-16.525,9.537c-2.449,1.417-4.369,5.042-4.369,8.245v17.727a4.462,4.462,0,0,0,1.884,4.046,2.982,2.982,0,0,0,1.534.413,4.11,4.11,0,0,0,2.073-.619l16.525-9.528h0c2.449-1.427,4.369-5.051,4.369-8.254V203.224A4.447,4.447,0,0,0,613.773,199.178Z" transform="translate(-403.932 -40.565)" fill="#4183db"/>
          </g>
          <g id="Group_1614" data-name="Group 1614" transform="translate(227.124 195.534)">
            <path id="Path_1533" data-name="Path 1533" d="M583.7,399.765l-2.244,1.455V268.159l.569-.323L694.45,202.925l-.011,2.582L583.7,269.462Z" transform="translate(-581.452 -202.925)" fill="#82d1f3"/>
          </g>
        </g>
      </g>
      <g id="Group_1962" data-name="Group 1962" transform="translate(950.854 559.537)">
        <g id="Group_1961" data-name="Group 1961" transform="translate(0 85.354)">
          <path id="Path_1534" data-name="Path 1534" d="M1016.085,465.138,849.632,559.451a72.66,72.66,0,0,1-72.323-.379L532.819,417.116a16.524,16.524,0,0,1,.155-28.665L735.7,273.577l280.54,162.9A16.521,16.521,0,0,1,1016.085,465.138Z" transform="translate(-510.509 -211.398)" fill="#d5d5d5"/>
          <g id="Group_1960" data-name="Group 1960">
            <g id="Group_1625" data-name="Group 1625" transform="translate(0.009 46.836)">
              <g id="Group_1618" data-name="Group 1618" transform="translate(131.646)">
                <path id="Path_1535" data-name="Path 1535" d="M536.9,274.141v14.893L805.641,443.749V429.3Z" transform="translate(-534.934 -253.313)" fill="#d5d5d5"/>
                <g id="Group_1617" data-name="Group 1617">
                  <path id="Path_1536" data-name="Path 1536" d="M805.641,445.947,536.9,290.788l32.142-18.557L837.782,427.391Z" transform="translate(-534.934 -269.96)" fill="#d5d5d5"/>
                  <path id="Path_1537" data-name="Path 1537" d="M800.839,440.4,537.448,288.334l26.789-15.467,264.1,152.48Z" transform="translate(-530.133 -264.416)" fill="#f2f2f2"/>
                  <path id="Path_1538" data-name="Path 1538" d="M841.508,430.57V428.3h0l-1.963-1.137L571.783,272.571,570.8,272l-32.144,18.559h0l-1.962,1.137h0v17.16L805.429,463.569l1.973,1.137h0l1.972-1.137,32.134-18.521Zm-5.9-1.137-7.734,4.46L807.4,445.709l-95.412-55.086-169.4-97.8L570.8,276.546ZM540.62,306.581V296.232L805.429,449.12v9.911Z" transform="translate(-536.695 -271.998)" fill="#414242"/>
                </g>
              </g>
              <g id="Group_1620" data-name="Group 1620" transform="translate(87.754 23.535)">
                <path id="Path_1539" data-name="Path 1539" d="M532.381,276.563v14.893L801.124,446.17V431.723Z" transform="translate(-530.41 -255.735)" fill="#d5d5d5"/>
                <g id="Group_1619" data-name="Group 1619">
                  <path id="Path_1540" data-name="Path 1540" d="M801.124,448.369,532.381,293.21l32.141-18.557L833.265,429.813Z" transform="translate(-530.41 -272.382)" fill="#d5d5d5"/>
                  <path id="Path_1541" data-name="Path 1541" d="M796.324,442.825,532.932,290.756l26.79-15.467,264.1,152.48Z" transform="translate(-525.61 -266.838)" fill="#f2f2f2"/>
                  <path id="Path_1542" data-name="Path 1542" d="M837,432.982v-2.264h0l-1.962-1.137L567.276,274.993l-.991-.573-32.134,18.559h0l-1.973,1.137h0v17.16L800.922,465.991l1.972,1.137h0l1.963-1.137L837,447.47Zm-5.9-1.127-7.734,4.46-20.484,11.816-95.411-55.086-169.387-97.8,28.2-16.276ZM536.114,309V298.654L800.922,451.541v9.911Z" transform="translate(-532.178 -274.42)" fill="#414242"/>
                </g>
              </g>
              <g id="Group_1622" data-name="Group 1622" transform="translate(43.883 48.916)">
                <path id="Path_1543" data-name="Path 1543" d="M527.865,279.175v14.893L796.608,448.782V434.334Z" transform="translate(-525.902 -258.351)" fill="#d5d5d5"/>
                <g id="Group_1621" data-name="Group 1621">
                  <path id="Path_1544" data-name="Path 1544" d="M796.608,450.981,527.865,295.822l32.141-18.556L828.75,432.424Z" transform="translate(-525.902 -274.997)" fill="#d5d5d5"/>
                  <path id="Path_1545" data-name="Path 1545" d="M791.807,445.437,528.416,293.368,555.2,277.9l264.105,152.48Z" transform="translate(-521.101 -269.454)" fill="#f2f2f2"/>
                  <path id="Path_1546" data-name="Path 1546" d="M832.476,435.594V433.33h0l-1.963-1.137L562.751,277.6l-.982-.563-32.144,18.55h0l-1.962,1.137h0v17.17L796.4,468.593l1.972,1.137h0l1.973-1.127,32.134-18.521Zm-5.9-1.137-7.734,4.47-20.474,11.816-95.411-55.086-169.4-97.8,28.208-16.285ZM531.589,311.615V301.266L796.4,454.153v9.911Z" transform="translate(-527.663 -277.032)" fill="#414242"/>
                </g>
              </g>
              <g id="Group_1624" data-name="Group 1624" transform="translate(0 74.364)">
                <path id="Path_1547" data-name="Path 1547" d="M523.349,281.794v14.893L792.092,451.4V436.953Z" transform="translate(-521.386 -260.967)" fill="#d5d5d5"/>
                <g id="Group_1623" data-name="Group 1623">
                  <path id="Path_1548" data-name="Path 1548" d="M792.092,453.6,523.349,298.441l32.141-18.557L824.233,435.043Z" transform="translate(-521.386 -277.614)" fill="#d5d5d5"/>
                  <path id="Path_1549" data-name="Path 1549" d="M787.292,448.057,523.9,295.988l26.79-15.467L814.795,433Z" transform="translate(-516.586 -272.071)" fill="#f2f2f2"/>
                  <path id="Path_1550" data-name="Path 1550" d="M827.96,438.213v-2.264h0L826,434.812l-267.763-154.6-.981-.564L525.11,298.2h0l-1.963,1.137h0v17.17l268.734,154.7,1.973,1.137h0l1.973-1.127L827.96,452.7Zm-5.9-1.127-7.735,4.46-20.474,11.816-95.411-55.086-169.4-97.8L557.254,284.2ZM527.073,314.234V303.885L791.88,456.772v9.911Z" transform="translate(-523.147 -279.651)" fill="#414242"/>
                </g>
              </g>
            </g>
            <g id="Group_1634" data-name="Group 1634">
              <g id="Group_1627" data-name="Group 1627" transform="translate(131.656)">
                <path id="Path_1551" data-name="Path 1551" d="M536.9,269.322v14.893L805.64,438.929V424.481Z" transform="translate(-534.935 -248.492)" fill="#d5d5d5"/>
                <g id="Group_1626" data-name="Group 1626">
                  <path id="Path_1552" data-name="Path 1552" d="M805.64,441.128,536.9,285.968l32.141-18.557L837.781,422.571Z" transform="translate(-534.935 -265.138)" fill="#d5d5d5"/>
                  <path id="Path_1553" data-name="Path 1553" d="M800.839,435.583,537.448,283.515l26.789-15.467,264.1,152.48Z" transform="translate(-530.134 -259.594)" fill="#f2f2f2"/>
                  <path id="Path_1554" data-name="Path 1554" d="M841.508,425.75v-2.274h0l-1.963-1.137L571.783,267.751l-.982-.573-32.144,18.56h0l-1.962,1.137h0v17.17l268.733,154.7,1.973,1.137h0l1.972-1.137,32.134-18.521Zm-5.9-1.137-7.734,4.46L807.4,440.889,711.98,385.8,542.593,288.011,570.8,271.725ZM540.62,301.76V291.412L805.429,444.3v9.911Z" transform="translate(-536.695 -267.178)" fill="#414242"/>
                </g>
              </g>
              <g id="Group_1629" data-name="Group 1629" transform="translate(87.764 23.535)">
                <path id="Path_1555" data-name="Path 1555" d="M532.381,271.744v14.893L801.124,441.351V426.9Z" transform="translate(-530.411 -250.913)" fill="#d5d5d5"/>
                <g id="Group_1628" data-name="Group 1628">
                  <path id="Path_1556" data-name="Path 1556" d="M801.124,443.548,532.381,288.39l32.142-18.556L833.265,424.992Z" transform="translate(-530.411 -267.56)" fill="#d5d5d5"/>
                  <path id="Path_1557" data-name="Path 1557" d="M796.322,438.005,532.932,285.937l26.79-15.467,264.1,152.481Z" transform="translate(-525.611 -262.017)" fill="#f2f2f2"/>
                  <path id="Path_1558" data-name="Path 1558" d="M837,428.172V425.9h0l-1.962-1.137L567.276,270.173l-.991-.573-32.134,18.559h0l-1.973,1.137h0v17.17l268.744,154.7,1.972,1.137h0l1.963-1.137L837,442.65Zm-5.9-1.137-7.734,4.46-20.484,11.816-95.411-55.085L538.086,290.433l28.2-16.285ZM536.114,304.183V293.834L800.922,446.721v9.911Z" transform="translate(-532.178 -269.6)" fill="#414242"/>
                </g>
              </g>
              <g id="Group_1631" data-name="Group 1631" transform="translate(43.892 48.915)">
                <path id="Path_1559" data-name="Path 1559" d="M527.865,274.355v14.893L796.609,443.963V429.514Z" transform="translate(-525.903 -253.529)" fill="#d5d5d5"/>
                <g id="Group_1630" data-name="Group 1630">
                  <path id="Path_1560" data-name="Path 1560" d="M796.609,446.161,527.865,291l32.142-18.556L828.749,427.6Z" transform="translate(-525.903 -270.176)" fill="#d5d5d5"/>
                  <path id="Path_1561" data-name="Path 1561" d="M791.808,440.617,528.416,288.548l26.79-15.466,264.1,152.48Z" transform="translate(-521.103 -264.632)" fill="#f2f2f2"/>
                  <path id="Path_1562" data-name="Path 1562" d="M832.476,430.774V428.51h0l-1.963-1.137-267.762-154.6-.982-.563-32.144,18.559h0l-1.962,1.127h0v17.17L796.4,463.773l1.972,1.137h0l1.963-1.127,32.144-18.521Zm-5.9-1.127-7.734,4.46-20.474,11.816-95.42-55.085-169.387-97.8,28.208-16.276ZM531.589,306.795V296.446L796.4,449.333v9.911Z" transform="translate(-527.663 -272.212)" fill="#414242"/>
                </g>
              </g>
              <g id="Group_1633" data-name="Group 1633" transform="translate(0 74.364)">
                <path id="Path_1563" data-name="Path 1563" d="M523.349,276.975v14.893L792.091,446.582V432.133Z" transform="translate(-521.377 -256.145)" fill="#d5d5d5"/>
                <g id="Group_1632" data-name="Group 1632">
                  <path id="Path_1564" data-name="Path 1564" d="M792.091,448.781,523.349,293.623l32.141-18.558L824.233,430.224Z" transform="translate(-521.377 -272.793)" fill="#d5d5d5"/>
                  <path id="Path_1565" data-name="Path 1565" d="M787.291,443.236,523.9,291.167,550.69,275.7l264.1,152.48Z" transform="translate(-516.577 -267.249)" fill="#f2f2f2"/>
                  <path id="Path_1566" data-name="Path 1566" d="M827.968,433.393v-2.264h0l-1.962-1.137L558.244,275.4l-.991-.573L525.119,293.39h0l-1.973,1.137h0v17.16L791.889,466.4l1.973,1.137h0l1.963-1.137,32.143-18.52Zm-5.9-1.127-7.735,4.46-20.474,11.816-95.421-55.086-169.386-97.8,28.2-16.276ZM527.082,309.414V299.065L791.889,451.952v9.912Z" transform="translate(-523.146 -274.831)" fill="#414242"/>
                </g>
              </g>
            </g>
            <g id="Group_1635" data-name="Group 1635" transform="translate(28.529 123.075)">
              <path id="Path_1567" data-name="Path 1567" d="M543.521,322.723V290.109l40.695,23.535v32.331Z" transform="translate(-374.066 -190.361)" fill="#d5d5d5"/>
              <path id="Path_1568" data-name="Path 1568" d="M614.059,332.872,587.94,317.84v-2.264l-44.621-25.818v37.168l44.621,25.507V347.9ZM584,345.65l-36.759-21.008V296.579L584,317.84Z" transform="translate(-375.827 -193.424)" fill="#414242"/>
              <path id="Path_1569" data-name="Path 1569" d="M526.284,311.963V280.2l40.695,23.774v31.677Z" transform="translate(-524.317 -276.764)" fill="#d5d5d5"/>
              <path id="Path_1570" data-name="Path 1570" d="M596.822,322.56l-26.11-15.032v-1.6l-44.63-26.081v36.332l44.63,25.973v-4.557Zm-30.045,12.749-36.76-21.4V286.7l36.76,21.475Z" transform="translate(-526.082 -279.844)" fill="#414242"/>
              <path id="Path_1571" data-name="Path 1571" d="M534.7,316.815V285.049l40.7,23.773V340.5Z" transform="translate(-450.967 -234.468)" fill="#d5d5d5"/>
              <path id="Path_1572" data-name="Path 1572" d="M605.237,327.4l-26.119-15.032v-1.6L534.5,284.7v36.322l44.62,25.974v-4.548Zm-30.054,12.748-36.76-21.4v-27.2l36.76,21.465Z" transform="translate(-452.728 -237.54)" fill="#414242"/>
            </g>
          </g>
        </g>
        <g id="Group_1637" data-name="Group 1637" transform="translate(85.833)">
          <path id="Path_1573" data-name="Path 1573" d="M811.194,251.375,690.026,181.418,568.857,251.375h0V391.289l121.169,69.956V321.69Z" transform="translate(-566.408 -178.615)" fill="#1f5295"/>
          <path id="Path_1574" data-name="Path 1574" d="M568.855,328.531l121.168,69.957V258.932L568.855,188.618h0Z" transform="translate(-566.424 -115.856)" fill="#113058"/>
          <path id="Path_1575" data-name="Path 1575" d="M815.816,252.492,692.225,181.13,568.994,252.278l-.37.214h0l-.02,2.789.02.01V395.2L689.8,465.158h0l2.429,1.4,2.43-1.4h0L814.6,395.9l1.215-.709V255.29h0ZM692.225,186.737l56.942,32.883L632.854,286.764,575.9,253.891ZM689.8,459.561,573.483,392.407V258.1L689.8,325.243Zm51.743-166.987-49.314,28.471-56.952-32.882,116.313-67.154,56.952,32.882Z" transform="translate(-568.605 -181.13)"/>
          <path id="Path_1576" data-name="Path 1576" d="M606.2,208.533,583.728,195.56c-2.487-1.428-5.014-1.574-7.093-.379-2.332,1.351-3.682,4.207-3.682,7.861,0,6.112,3.663,13.021,8.346,15.712l22.476,12.982a8.152,8.152,0,0,0,4.042,1.185,6.034,6.034,0,0,0,3.051-.816c2.332-1.351,3.673-4.208,3.673-7.861C614.54,218.133,610.877,211.234,606.2,208.533Zm2.235,19.376a2.558,2.558,0,0,1-2.235-.379l-22.476-12.982c-3.206-1.846-5.917-7.113-5.917-11.5,0-2.167.67-3.323,1.253-3.654.69-.408,1.7.058,2.235.379l1.545.894c.564,5.267,3.683,10.766,7.609,13.04l19.191,11.068C609.536,226.577,608.982,227.588,608.438,227.908Z" transform="translate(-530.712 -65.654)"/>
          <path id="Path_1577" data-name="Path 1577" d="M615.81,199.212a3.792,3.792,0,0,0-3.916.214l-17.9,10.329c-2.653,1.535-4.732,5.461-4.732,8.93v19.2a4.833,4.833,0,0,0,2.04,4.382,3.23,3.23,0,0,0,1.661.447,4.452,4.452,0,0,0,2.245-.67l17.9-10.319h0c2.653-1.545,4.732-5.471,4.732-8.94V203.595C617.84,201.554,617.1,199.96,615.81,199.212Z" transform="translate(-388.529 -27.416)" fill="#1f5295"/>
        </g>
      </g>
    </g>
  </g>
</svg>
