<svg xmlns="http://www.w3.org/2000/svg" width="504.475" height="495.469" viewBox="0 0 504.475 495.469">
  <g id="Group_1654" data-name="Group 1654" transform="translate(-756.476 -197.346)">
    <g id="Group_1553" data-name="Group 1553" transform="translate(915.461 197.346)">
      <path id="Path_1372" data-name="Path 1372" d="M866.317,292.017l-20.368-12.46-1.42-26.577,21.788-1.437Z" transform="translate(-550.587 27.239)" fill="#1f5295"/>
      <path id="Path_1373" data-name="Path 1373" d="M878.795,263.768l-28.9-18.276L847.74,284.1l28.492-2.977Z" transform="translate(-537.279 2.164)" fill="#1f5295"/>
      <path id="Path_1374" data-name="Path 1374" d="M878.62,264.727l-28.9-18.276-2.155,38.61,28.492-2.978Z" transform="translate(-537.998 6.135)" fill="#f2f2f2"/>
      <path id="Path_1375" data-name="Path 1375" d="M895.015,265.166l.005-.015-.129-.082c-.16-.108-.293-.252-.463-.35-.088-.052-.185-.067-.273-.113l-31.043-19.629-1.821,32.679-17.073,1.121,1.543,28.867,21.82,13.348L891.8,306.6l5.453-14.063.1-22.756A5.732,5.732,0,0,0,895.015,265.166Zm-28.929,51.371L848.69,305.9l-1.3-24.294,13.729-.905-.4,7.232,5.365-.561Zm0-32.211-2.15.226.227-4.064,1.924-.123Zm1.055-7.057-2.809.185,1.517-27.18L888.658,264.7l-.088.036Z" transform="translate(-551.866 0.029)" fill="#16110d"/>
      <g id="Group_1503" data-name="Group 1503" transform="translate(90.176 373.365)">
        <path id="Path_1376" data-name="Path 1376" d="M805.208,307.124l31.924-21.07-10.826-3.515-21.1-12.1Z" transform="translate(-803.699 -267.833)" fill="#1f5295"/>
        <path id="Path_1377" data-name="Path 1377" d="M804.915,312.028v-42.1l23.363,13.4,13.523,4.357Zm3.02-36.886v31.274l26.964-17.8-7.839-2.546Z" transform="translate(-804.915 -269.931)" fill="#16110d"/>
      </g>
      <g id="Group_1504" data-name="Group 1504" transform="translate(110.171 289.952)">
        <path id="Path_1378" data-name="Path 1378" d="M845.522,320.037,809.31,349.948l17.952,10.663,3.318-1.919c6.281-3.626,11.99-2.69,14.608,2.392l5.638,9.887c1.79,3.477,1.584-2.109,5.879-4.588l11.569,1.919,10.7-.159,4.316-8.513,10.89-6.291,61.957-35.77c4.8-2.773,9.126-8.621,10.946-14.8,1.445-4.918,9.768-10.658,13.59-12.865l2.109-1.214c5.113-2.958,9.259-10.138,9.259-16.044V254.17Z" transform="translate(-806.697 -251.83)" fill="#1f5295"/>
        <path id="Path_1379" data-name="Path 1379" d="M853.924,375.474h-.036c-1.312-.021-1.976-1.306-2.294-1.924l-5.612-9.83a6.592,6.592,0,0,0-4.043-3.534c-2.371-.715-5.391-.087-8.492,1.7l-4.09,2.356L808.8,352.039l38.2-31.49,148.651-66.834v20.817c0,6.486-4.4,14.1-10.01,17.35l-2.114,1.214c-4.532,2.623-11.718,7.978-12.89,11.985-1.934,6.559-6.5,12.711-11.641,15.684l-72.456,41.83-4.532,8.93-11.609.17-11.27-1.842a9.443,9.443,0,0,0-2.752,3.441C855.791,374.364,855.179,375.474,853.924,375.474Zm-14.073-18.6a10.5,10.5,0,0,1,2.942.412,9.575,9.575,0,0,1,5.844,5l5.277,9.233a11.164,11.164,0,0,1,4.146-4.557l.463-.273,12.1,2.006,9.521-.16,4.1-8.1,11.286-6.517,61.952-35.77c4.439-2.562,8.554-8.153,10.252-13.919,1.893-6.43,13.019-13.019,14.279-13.744l2.114-1.214c4.609-2.664,8.508-9.408,8.508-14.737V258.386L848.43,323.218l-34.4,28.414,15.344,9.115,2.551-1.476A16.09,16.09,0,0,1,839.85,356.874Z" transform="translate(-808.802 -253.715)" fill="#16110d"/>
      </g>
      <g id="Group_1512" data-name="Group 1512" transform="translate(97.594 371.317)">
        <g id="Group_1505" data-name="Group 1505">
          <path id="Path_1380" data-name="Path 1380" d="M850.43,271.8l-.015.016c-4.624-2.958-11.146-2.721-18.394,1.466-14.012,8.086-25.369,27.766-25.369,43.944,0,7.335,2.35,12.669,6.208,15.58l-.01.021.232.134a12.072,12.072,0,0,0,2.063,1.193l18.734,10.854,15.082-17.278,19.9-32.561V282.391Z" transform="translate(-805.139 -268.297)" fill="#1f5295"/>
          <path id="Path_1381" data-name="Path 1381" d="M824.583,285.783l-15.7-9.033c-.448.977-.818,1.965-1.2,2.953l14.393,8.276,23.234,18.95-1.451,2.366-2.366,2.716.129.113-.864,1.409,5.617-6.435,1.446-2.366Z" transform="translate(-800.896 -239.627)" fill="#fbeacc"/>
          <path id="Path_1382" data-name="Path 1382" d="M850.163,318.264l13.158-21.532V283.954l-18.42-10.6-.021.021c-4.624-2.958-11.141-2.721-18.389,1.466-7.1,4.094-13.5,11.178-18.106,19.264Z" transform="translate(-797.953 -261.821)" fill="#fbeacc"/>
          <path id="Path_1383" data-name="Path 1383" d="M834.36,347.565,815.6,336.7a12.449,12.449,0,0,1-2.181-1.281l-.252-.175-.041-.031-.5-.4c-4.053-3.39-6.271-9.161-6.271-16.357,0-16.635,11.723-36.938,26.125-45.255,7.33-4.233,14.238-4.825,19.542-1.682l.376.206,19.181,11.023v14.073l-20.118,32.921Zm-19.248-14.629.067.036a12.006,12.006,0,0,0,1.811,1.049l17.787,10.293,14.264-16.347,19.521-31.984V284.5L851.9,274.924l-.056.051-1.024-.653c-4.357-2.788-10.334-2.243-16.825,1.5-13.575,7.839-24.619,26.964-24.619,42.637,0,6.543,1.991,11.645,5.607,14.377Z" transform="translate(-806.357 -269.533)" fill="#16110d"/>
        </g>
        <g id="Group_1511" data-name="Group 1511" transform="translate(18.837 10.855)">
          <g id="Group_1506" data-name="Group 1506">
            <path id="Path_1384" data-name="Path 1384" d="M861.057,290.055c0,16.177-11.357,35.853-25.374,43.944s-25.37,1.533-25.37-14.65,11.358-35.852,25.37-43.944S861.057,273.872,861.057,290.055Z" transform="translate(-808.801 -270.417)" fill="#16110d"/>
            <path id="Path_1385" data-name="Path 1385" d="M825.564,340.214a14.518,14.518,0,0,1-7.356-1.9c-5.283-3.045-8.189-9.346-8.189-17.736,0-16.635,11.723-36.938,26.126-45.255,7.268-4.187,14.171-4.825,19.454-1.775s8.184,9.346,8.184,17.731c0,16.635-11.718,36.938-26.126,45.255A24.542,24.542,0,0,1,825.564,340.214Zm22.664-65.548a21.546,21.546,0,0,0-10.57,3.272c-13.569,7.839-24.618,26.969-24.618,42.637,0,7.268,2.376,12.633,6.677,15.123s10.149,1.847,16.429-1.78c13.575-7.834,24.623-26.969,24.623-42.642,0-7.258-2.377-12.633-6.682-15.112A11.524,11.524,0,0,0,848.227,274.667Z" transform="translate(-810.019 -271.643)" fill="#16110d"/>
          </g>
          <g id="Group_1507" data-name="Group 1507" transform="translate(8.642 11.095)">
            <path id="Path_1386" data-name="Path 1386" d="M822.352,320.181a9.946,9.946,0,0,1-5.046-1.307c-3.611-2.083-5.607-6.378-5.607-12.083,0-11.208,7.9-24.891,17.613-30.5,4.948-2.845,9.655-3.277,13.266-1.188s5.6,6.373,5.6,12.083c0,11.208-7.9,24.891-17.613,30.5A16.676,16.676,0,0,1,822.352,320.181Zm15.169-43.861a14.189,14.189,0,0,0-6.954,2.155c-9.012,5.206-16.347,17.911-16.347,28.317,0,4.768,1.543,8.287,4.346,9.907s6.62,1.183,10.746-1.193c9.012-5.206,16.352-17.911,16.352-28.317,0-4.768-1.543-8.292-4.347-9.907A7.517,7.517,0,0,0,837.521,276.32Z" transform="translate(-811.699 -273.8)" fill="#1f5295"/>
          </g>
          <g id="Group_1508" data-name="Group 1508" transform="translate(11.162 11.125)">
            <path id="Path_1387" data-name="Path 1387" d="M820.327,320.121a9.607,9.607,0,0,1-8.035-4.022l-.1-2.083,1.2.088a14,14,0,0,0,7.567-2.125c9.012-5.2,16.347-17.906,16.347-28.322a13.267,13.267,0,0,0-2.135-7.855h0l1.1-2c6.1.417,9.876,5.53,9.876,13.343,0,11.214-7.9,24.9-17.612,30.5A16.614,16.614,0,0,1,820.327,320.121Zm-4.11-3.683c2.788,1.852,6.744,1.533,11.064-.972,9.017-5.2,16.352-17.906,16.352-28.317,0-5.2-1.821-8.837-5-10.231a18.063,18.063,0,0,1,1.188,6.738c0,11.219-7.9,24.9-17.607,30.5A18.289,18.289,0,0,1,816.216,316.438Z" transform="translate(-812.189 -273.806)" fill="#1f5295"/>
          </g>
          <g id="Group_1509" data-name="Group 1509" transform="translate(8.626 14.52)">
            <path id="Path_1388" data-name="Path 1388" d="M822.143,310.236,811.7,304.12l.015-.741c.257-10.246,6.728-22.2,15.381-28.44l.668-.473,10.041,5.926a1.938,1.938,0,0,1,.674,2.675Zm-7.88-7.531,7.006,4.1,14.752-24.546L827.9,277.47C820.492,283.174,814.772,293.75,814.263,302.706Z" transform="translate(-811.696 -274.466)" fill="#1f5295"/>
          </g>
          <g id="Group_1510" data-name="Group 1510" transform="translate(14.171 19.603)">
            <path id="Path_1389" data-name="Path 1389" d="M835.075,283.57c0,7.037-4.938,15.586-11.029,19.1s-11.028.663-11.028-6.368,4.938-15.586,11.028-19.1S835.075,276.539,835.075,283.57Z" transform="translate(-811.763 -274.436)" fill="#16110d"/>
            <path id="Path_1390" data-name="Path 1390" d="M820.13,306.46a6.914,6.914,0,0,1-3.5-.905c-2.49-1.44-3.858-4.362-3.858-8.23,0-7.423,5.226-16.481,11.651-20.19,3.359-1.939,6.574-2.207,9.063-.772s3.858,4.357,3.858,8.225c0,7.417-5.231,16.481-11.661,20.195A11.233,11.233,0,0,1,820.13,306.46Zm9.845-28.486a8.8,8.8,0,0,0-4.29,1.342c-5.73,3.308-10.4,11.389-10.4,18.009,0,2.932.926,5.082,2.6,6.049s4.007.694,6.538-.771c5.741-3.313,10.406-11.394,10.406-18.014,0-2.927-.926-5.077-2.6-6.044A4.4,4.4,0,0,0,829.975,277.974Z" transform="translate(-812.774 -275.454)" fill="#1f5295"/>
          </g>
        </g>
      </g>
      <g id="Group_1520" data-name="Group 1520" transform="translate(4.172 317.814)">
        <g id="Group_1513" data-name="Group 1513">
          <path id="Path_1391" data-name="Path 1391" d="M832.272,261.395l-.021.021c-4.624-2.958-11.141-2.721-18.389,1.461-14.017,8.091-25.375,27.766-25.375,43.949,0,7.335,2.351,12.664,6.209,15.58l-.005.021.226.134a12.294,12.294,0,0,0,2.063,1.193l18.739,10.854L830.8,317.323l19.9-32.555V271.991Z" transform="translate(-786.981 -257.894)" fill="#ffbe2e"/>
          <path id="Path_1392" data-name="Path 1392" d="M806.42,275.382l-15.7-9.033c-.448.977-.813,1.965-1.2,2.953l14.4,8.277,23.23,18.95-1.445,2.361-2.371,2.721.129.113-.864,1.409,5.617-6.44,1.445-2.361Z" transform="translate(-782.738 -229.223)" fill="#fbeacc"/>
          <path id="Path_1393" data-name="Path 1393" d="M832.005,307.858l13.153-21.527V273.554l-18.42-10.6-.02.021c-4.619-2.958-11.142-2.721-18.389,1.461-7.1,4.1-13.5,11.183-18.106,19.264Z" transform="translate(-779.796 -251.417)" fill="#fbeacc"/>
          <path id="Path_1394" data-name="Path 1394" d="M815.971,337.037,797.433,326.3a13.107,13.107,0,0,1-2.181-1.276l-.252-.18-.036-.026-.5-.4c-4.049-3.385-6.265-9.156-6.265-16.352,0-16.635,11.717-36.938,26.12-45.255,7.335-4.238,14.243-4.825,19.546-1.687l.371.206,19.181,11.028v14.073L833.3,319.348ZM796.95,322.532l.062.041a11.372,11.372,0,0,0,1.816,1.044l17.782,10.3,14.269-16.347L850.4,285.584V274.1l-16.666-9.578-.057.052-1.018-.653c-4.362-2.788-10.339-2.248-16.83,1.5-13.569,7.844-24.618,26.969-24.618,42.642,0,6.543,1.991,11.645,5.612,14.372Z" transform="translate(-788.195 -259.132)" fill="#16110d"/>
        </g>
        <g id="Group_1519" data-name="Group 1519" transform="translate(18.837 10.857)">
          <g id="Group_1514" data-name="Group 1514">
            <path id="Path_1395" data-name="Path 1395" d="M842.894,279.65c0,16.182-11.357,35.858-25.369,43.949s-25.374,1.533-25.374-14.65S803.507,273.092,817.524,265,842.894,263.473,842.894,279.65Z" transform="translate(-790.643 -260.017)" fill="#16110d"/>
            <path id="Path_1396" data-name="Path 1396" d="M807.4,329.813a14.59,14.59,0,0,1-7.361-1.9c-5.283-3.05-8.184-9.346-8.184-17.736,0-16.635,11.718-36.938,26.12-45.255,7.273-4.187,14.171-4.825,19.459-1.775s8.184,9.346,8.184,17.731c0,16.635-11.723,36.938-26.131,45.255A24.509,24.509,0,0,1,807.4,329.813Zm22.658-65.548a21.592,21.592,0,0,0-10.571,3.266c-13.569,7.844-24.618,26.969-24.618,42.642,0,7.263,2.377,12.633,6.677,15.118s10.149,1.852,16.429-1.775c13.58-7.839,24.623-26.969,24.623-42.642,0-7.258-2.376-12.633-6.682-15.113A11.509,11.509,0,0,0,830.06,264.266Z" transform="translate(-791.857 -261.242)" fill="#16110d"/>
          </g>
          <g id="Group_1515" data-name="Group 1515" transform="translate(8.642 11.092)">
            <path id="Path_1397" data-name="Path 1397" d="M804.19,309.782a9.966,9.966,0,0,1-5.051-1.307c-3.611-2.088-5.6-6.378-5.6-12.083,0-11.208,7.9-24.891,17.607-30.5,4.948-2.85,9.655-3.276,13.266-1.193s5.607,6.378,5.607,12.083c0,11.208-7.9,24.9-17.618,30.5A16.666,16.666,0,0,1,804.19,309.782Zm15.164-43.861a14.19,14.19,0,0,0-6.955,2.155c-9.012,5.206-16.347,17.906-16.347,28.317,0,4.763,1.543,8.287,4.346,9.9s6.62,1.188,10.746-1.188C820.162,299.9,827.5,287.2,827.5,276.785c0-4.768-1.543-8.287-4.341-9.9A7.537,7.537,0,0,0,819.354,265.921Z" transform="translate(-793.537 -263.399)" fill="#ffbe2e"/>
          </g>
          <g id="Group_1516" data-name="Group 1516" transform="translate(11.157 11.125)">
            <path id="Path_1398" data-name="Path 1398" d="M802.169,309.72a9.62,9.62,0,0,1-8.04-4.028l-.1-2.078,1.2.082a13.981,13.981,0,0,0,7.567-2.119c9.017-5.2,16.347-17.906,16.347-28.322a13.27,13.27,0,0,0-2.135-7.855h0l1.106-2c6.09.417,9.876,5.53,9.876,13.343,0,11.209-7.9,24.9-17.618,30.5A16.609,16.609,0,0,1,802.169,309.72Zm-4.11-3.688c2.788,1.857,6.738,1.533,11.059-.967,9.022-5.2,16.352-17.906,16.352-28.317,0-5.2-1.821-8.842-5-10.231a18.042,18.042,0,0,1,1.193,6.738c0,11.219-7.9,24.9-17.607,30.5A18.48,18.48,0,0,1,798.059,306.032Z" transform="translate(-794.026 -263.405)" fill="#ffbe2e"/>
          </g>
          <g id="Group_1517" data-name="Group 1517" transform="translate(8.621 14.515)">
            <path id="Path_1399" data-name="Path 1399" d="M803.985,299.839l-10.452-6.116.021-.746c.257-10.241,6.723-22.2,15.375-28.435l.669-.478,10.041,5.931a1.892,1.892,0,0,1,.9,1.193,1.919,1.919,0,0,1-.221,1.481Zm-7.886-7.531,7.011,4.1,14.747-24.546-8.112-4.789C802.329,272.778,796.609,283.348,796.1,292.309Z" transform="translate(-793.533 -264.064)" fill="#ffbe2e"/>
          </g>
          <g id="Group_1518" data-name="Group 1518" transform="translate(14.166 19.6)">
            <path id="Path_1400" data-name="Path 1400" d="M816.907,273.17c0,7.032-4.933,15.586-11.023,19.1s-11.028.669-11.028-6.363,4.933-15.586,11.028-19.1S816.907,266.138,816.907,273.17Z" transform="translate(-793.596 -264.032)" fill="#16110d"/>
            <path id="Path_1401" data-name="Path 1401" d="M801.972,296.061a6.932,6.932,0,0,1-3.5-.905c-2.484-1.44-3.857-4.362-3.857-8.23,0-7.422,5.231-16.481,11.656-20.195,3.359-1.934,6.568-2.207,9.058-.766s3.858,4.357,3.858,8.225c0,7.417-5.231,16.476-11.661,20.195A11.23,11.23,0,0,1,801.972,296.061Zm9.845-28.486a8.823,8.823,0,0,0-4.3,1.342c-5.73,3.307-10.4,11.389-10.4,18.009,0,2.932.926,5.077,2.6,6.044s4.007.694,6.538-.767c5.735-3.318,10.4-11.4,10.4-18.014,0-2.932-.926-5.077-2.6-6.044A4.388,4.388,0,0,0,811.817,267.575Z" transform="translate(-794.611 -265.053)" fill="#ffbe2e"/>
          </g>
        </g>
      </g>
      <g id="Group_1521" data-name="Group 1521" transform="translate(7.304 32.471)">
        <path id="Path_1402" data-name="Path 1402" d="M1056.609,264.2,953.141,204.922c-.232-.159-.833-.484-.833-.484l-.319-.108a7.642,7.642,0,0,0-6.358.808L886.287,236.7c-6.774,3.606-13.24,10.946-17.247,19.577l-21.82,47.03c-23.893,51.51-41.089,104.234-50.6,155.143L789.13,498.5l103.8,59.54,70.172-138.1,1.394-.808a16.289,16.289,0,0,0,7.371-12.762v-3.683l34.294-67.492Z" transform="translate(-787.453 -202.441)" fill="#000384"/>
        <path id="Path_1403" data-name="Path 1403" d="M1056.56,265.751,953.087,206.468c-.226-.165-.833-.483-.833-.483l-.314-.108c-1.744-.669-3.93-.489-6.358.8l-55.8,30.03c-6.775,3.606-13.24,10.946-17.242,19.577l-21.82,47.03c-23.9,51.505-41.094,104.229-50.61,155.143l-11.029,41.588,96.426,47.22,7.628,4.377L963.05,421.48l1.394-.8a16.3,16.3,0,0,0,7.371-12.767v-3.678l34.294-67.5Z" transform="translate(-787.656 -196.045)" fill="#f2f2f2"/>
        <path id="Path_1404" data-name="Path 1404" d="M894.458,560.9,788.8,500.5l7.68-41.1c9.583-51.294,26.645-103.607,50.718-155.5l21.82-47.035c4.141-8.93,10.833-16.507,17.911-20.272l59.339-31.563c3.426-1.821,6.034-1.492,7.608-.885l.5.19s.72.391.988.586l104.8,60.023-51.418,72.348L974.727,404.27v3.318a17.736,17.736,0,0,1-8.122,14.073l-1,.576Zm-102.29-61.962L893.661,557.16l69.652-137.083,1.779-1.034a14.868,14.868,0,0,0,6.615-11.455l.16-4.362,34.3-67.5,49.6-69.822L953.736,207.457c-.314-.216-.792-.473-.792-.473a6.435,6.435,0,0,0-5.252.7l-59.344,31.563c-6.507,3.467-12.71,10.524-16.584,18.878l-21.82,47.03c-23.965,51.665-40.955,103.746-50.492,154.783Z" transform="translate(-788.804 -203.659)" fill="#16110d"/>
      </g>
      <g id="Group_1522" data-name="Group 1522" transform="translate(227.337 145.031)">
        <path id="Path_1405" data-name="Path 1405" d="M923.789,269.44l-73.546-42.421a6.228,6.228,0,0,0-.8-.463h0c-2.505-1.219-5.839-.936-9.511,1.183l-1.9,1.1a13.664,13.664,0,0,0-6.157,10.663v89.338c0,2.011.73,3.4,1.893,4.023h0l73.572,42.333a.938.938,0,0,0,1.4-.633c1.831-10.036,13.652-74.791,13.652-76.586,0-1.944-5.324-18.446-5.324-18.446Z" transform="translate(-830.362 -224.325)" fill="#1f5295"/>
        <path id="Path_1406" data-name="Path 1406" d="M920.2,270.9l-73.546-42.416a6.979,6.979,0,0,0-.8-.468h0c-2.505-1.219-5.839-.936-9.511,1.188l-1.9,1.091c-3.385,1.955-.447,2.551-.447,2.551s82.008,49.3,82.008,47.508C916.006,278.408,920.2,270.9,920.2,270.9Z" transform="translate(-826.458 -218.283)" fill="#f2f2f2"/>
        <path id="Path_1407" data-name="Path 1407" d="M909.041,378.044a2.425,2.425,0,0,1-1.234-.329l-73.572-42.334c-1.672-.9-2.654-2.845-2.654-5.329V240.714a15.1,15.1,0,0,1,6.913-11.975l1.9-1.09c3.955-2.294,7.839-2.731,10.92-1.235a9.148,9.148,0,0,1,.988.566l74.853,43.177-7.212,10.817c1.466,4.568,5.17,16.3,5.17,18.214,0,1.8-9.562,54.35-13.677,76.854a2.427,2.427,0,0,1-1.373,1.775A2.391,2.391,0,0,1,909.041,378.044ZM847.392,228.56a11.225,11.225,0,0,0-5.489,1.7l-1.9,1.1a12.156,12.156,0,0,0-5.4,9.357v89.338a2.911,2.911,0,0,0,1.1,2.69L908.614,374.7c6.646-36.377,13.363-73.665,13.487-75.552-.051-1.168-2.711-10.046-5.252-17.936l-.226-.694,6.24-9.357L850.71,229.542a7.626,7.626,0,0,0-.725-.417A5.842,5.842,0,0,0,847.392,228.56Z" transform="translate(-831.58 -225.541)" fill="#16110d"/>
      </g>
      <g id="Group_1523" data-name="Group 1523" transform="translate(301.48 187.795)">
        <path id="Path_1408" data-name="Path 1408" d="M846.288,247.828V337.16c0,3.93,2.757,5.519,6.157,3.56l9.789-5.653a13.615,13.615,0,0,0,6.157-10.668V244.181c0-8.961-6.291-12.592-14.053-8.112l-1.893,1.09A13.615,13.615,0,0,0,846.288,247.828Z" transform="translate(-844.776 -232.632)" fill="#16110d"/>
        <path id="Path_1409" data-name="Path 1409" d="M850.911,344.3a4.7,4.7,0,0,1-2.361-.617c-1.646-.957-2.556-2.834-2.556-5.3V249.051a15.078,15.078,0,0,1,6.918-11.975l1.893-1.09c4.234-2.449,8.308-2.8,11.445-.988s4.871,5.509,4.871,10.406v80.218a15.085,15.085,0,0,1-6.914,11.975l-9.788,5.653A7.072,7.072,0,0,1,850.911,344.3Zm10.92-107.419a11.331,11.331,0,0,0-5.519,1.718l-1.9,1.1a12.156,12.156,0,0,0-5.4,9.357v89.333a2.31,2.31,0,0,0,3.9,2.253l9.784-5.653a12.156,12.156,0,0,0,5.406-9.362V245.4c0-3.77-1.194-6.538-3.364-7.793A5.766,5.766,0,0,0,861.832,236.88Z" transform="translate(-845.994 -233.855)" fill="#16110d"/>
      </g>
      <g id="Group_1531" data-name="Group 1531" transform="translate(243.941 318.03)">
        <g id="Group_1524" data-name="Group 1524">
          <path id="Path_1410" data-name="Path 1410" d="M869.715,261.016l-.015.016c-3.657-2.335-8.811-2.15-14.542,1.157-11.08,6.4-20.056,21.954-20.056,34.741,0,5.8,1.857,10.015,4.908,12.32l-.005.015.18.1a9.535,9.535,0,0,0,1.63.947l14.814,8.58,11.918-13.662,15.73-25.734V269.4Z" transform="translate(-833.59 -257.969)" fill="#1f5295"/>
          <path id="Path_1411" data-name="Path 1411" d="M837.777,280.088l.015-.016,31.048,18.106,10.668-17.458v-10.1l-14.562-8.374-.015.01c-3.652-2.335-8.811-2.15-14.541,1.163-5.756,3.323-10.915,9.141-14.572,15.745A9.5,9.5,0,0,1,837.777,280.088Z" transform="translate(-830.627 -252.901)" fill="#f2f2f2"/>
          <path id="Path_1412" data-name="Path 1412" d="M858.166,322.033l-15.889-9.208a10.337,10.337,0,0,1-1.759-1.024l-.2-.144-.016-.016-.617-.442.005-.057c-3.153-2.752-4.882-7.33-4.882-13,0-13.256,9.336-29.428,20.812-36.053,5.489-3.169,10.884-3.765,15.035-1.728l.01-.005.386.211.129.072.5.283L887,269.726v11.4l-15.951,26.1Zm-15.781-12.6a8.878,8.878,0,0,0,1.27.71l13.868,8.029,11.105-12.721,15.36-25.169v-8.806l-12.808-7.361-.057.052-1.024-.653c-3.343-2.145-7.942-1.713-12.962,1.188-10.648,6.147-19.31,21.146-19.31,33.44,0,5.067,1.533,9.012,4.31,11.105Z" transform="translate(-834.808 -259.174)" fill="#16110d"/>
        </g>
        <g id="Group_1530" data-name="Group 1530" transform="translate(14.896 8.546)">
          <g id="Group_1525" data-name="Group 1525">
            <path id="Path_1413" data-name="Path 1413" d="M878.114,275.453c0,12.788-8.981,28.342-20.061,34.741S838,311.4,838,298.61s8.981-28.342,20.056-34.742S878.114,262.66,878.114,275.453Z" transform="translate(-836.49 -259.609)" fill="#16110d"/>
            <path id="Path_1414" data-name="Path 1414" d="M850.307,315.674a11.8,11.8,0,0,1-5.977-1.543c-4.27-2.464-6.626-7.546-6.626-14.295,0-13.251,9.336-29.423,20.807-36.048,5.848-3.369,11.419-3.879,15.693-1.409s6.636,7.546,6.636,14.295c0,13.256-9.336,29.428-20.817,36.053A19.731,19.731,0,0,1,850.307,315.674Zm17.921-51.814a16.734,16.734,0,0,0-8.2,2.546c-10.643,6.142-19.3,21.141-19.3,33.43,0,5.627,1.815,9.773,5.118,11.681,3.3,1.893,7.8,1.4,12.669-1.4,10.647-6.147,19.31-21.146,19.31-33.44,0-5.622-1.821-9.773-5.123-11.671A8.762,8.762,0,0,0,868.228,263.86Z" transform="translate(-837.704 -260.835)" fill="#16110d"/>
          </g>
          <g id="Group_1526" data-name="Group 1526" transform="translate(6.883 8.827)">
            <path id="Path_1415" data-name="Path 1415" d="M847.725,299.746a8.121,8.121,0,0,1-4.12-1.07c-2.942-1.7-4.563-5.175-4.563-9.778,0-8.945,6.306-19.865,14.053-24.346,3.992-2.294,7.808-2.629,10.751-.936s4.563,5.17,4.563,9.783c0,8.945-6.306,19.86-14.053,24.341A13.471,13.471,0,0,1,847.725,299.746Zm11.99-34.68a10.94,10.94,0,0,0-5.36,1.672c-7.057,4.074-12.8,14.012-12.8,22.16,0,3.673,1.173,6.368,3.3,7.6s5.057.9,8.235-.936c7.052-4.079,12.8-14.017,12.8-22.159,0-3.673-1.178-6.378-3.308-7.608A5.7,5.7,0,0,0,859.715,265.066Z" transform="translate(-839.042 -262.551)" fill="#1f5295"/>
          </g>
          <g id="Group_1527" data-name="Group 1527" transform="translate(8.477 8.853)">
            <path id="Path_1416" data-name="Path 1416" d="M846.435,299.7a7.836,7.836,0,0,1-6.553-3.292l-.53-2.109,1.631.113a10.611,10.611,0,0,0,5.828-1.646c7.052-4.069,12.8-14.012,12.8-22.159a10.185,10.185,0,0,0-1.646-6.054l-1.09-1.5,2.2-.5c4.969.339,8.055,4.48,8.055,10.807,0,8.95-6.306,19.87-14.053,24.34A13.444,13.444,0,0,1,846.435,299.7Zm-2.495-3.061c2.073,1,4.85.638,7.87-1.116,7.052-4.069,12.8-14.012,12.8-22.159,0-3.652-1.163-6.3-3.21-7.531a14.905,14.905,0,0,1,.725,4.773c0,8.95-6.306,19.865-14.053,24.341A15.444,15.444,0,0,1,843.941,296.639Z" transform="translate(-839.352 -262.556)" fill="#1f5295"/>
          </g>
          <g id="Group_1528" data-name="Group 1528" transform="translate(6.862 11.487)">
            <path id="Path_1417" data-name="Path 1417" d="M847.659,292.018l-8.621-5.046.021-.746c.206-8.174,5.36-17.715,12.263-22.684l.669-.473,8.086,4.768a1.793,1.793,0,0,1,.623,2.484Zm-6.049-6.461,5.175,3.03,11.388-18.955-6.029-3.56C846.45,270.527,842.063,278.638,841.61,285.557Z" transform="translate(-839.038 -263.068)" fill="#1f5295"/>
          </g>
          <g id="Group_1529" data-name="Group 1529" transform="translate(11.25 15.552)">
            <path id="Path_1418" data-name="Path 1418" d="M857.569,270.329c0,5.56-3.9,12.32-8.714,15.1s-8.719.53-8.719-5.031,3.9-12.319,8.719-15.1S857.569,264.769,857.569,270.329Z" transform="translate(-838.876 -262.842)" fill="#16110d"/>
            <path id="Path_1419" data-name="Path 1419" d="M845.976,288.9a5.7,5.7,0,0,1-2.9-.756c-2.057-1.188-3.189-3.575-3.189-6.738,0-6.049,4.105-13.163,9.346-16.188,2.731-1.569,5.375-1.8,7.422-.607s3.184,3.58,3.184,6.733c0,6.054-4.11,13.163-9.346,16.188A9.2,9.2,0,0,1,845.976,288.9Zm7.777-22.525a6.662,6.662,0,0,0-3.256,1.029c-4.46,2.572-8.086,8.853-8.086,14,0,2.222.679,3.842,1.924,4.557s2.978.5,4.9-.612c4.465-2.572,8.091-8.852,8.091-14.007,0-2.222-.684-3.837-1.929-4.557A3.257,3.257,0,0,0,853.754,266.377Z" transform="translate(-839.891 -263.858)" fill="#1f5295"/>
          </g>
        </g>
      </g>
      <g id="Group_1532" data-name="Group 1532" transform="translate(111.101 91.971)">
        <path id="Path_1420" data-name="Path 1420" d="M809.31,510.109l7.484-40.055c9.516-50.908,26.712-103.633,50.6-155.138l21.82-47.035c4.007-8.631,10.468-15.967,17.248-19.572l59.344-31.568c5.72-3.04,10.236-.221,10.236,6.383v98.268c0,3.122,1.235,5.35,3.354,6.059l8.965,3c2.325.777,3.678,3.22,3.678,6.641v80.887a16.291,16.291,0,0,1-7.366,12.762l-16.568,9.568c-5.077,2.927-9.588,9.259-11.229,15.75L950.22,482.42c-1.173,4.64-4.4,9.161-8.024,11.255L883.947,527.3c-3.8,2.191-7.134,1.2-8.164-2.433l-4.372-15.452a26.152,26.152,0,0,0-7.731-12.947c-8.045-6.98-20.575-6.008-33.466,1.487Z" transform="translate(-807.628 -214.01)" fill="#16110d"/>
        <path id="Path_1421" data-name="Path 1421" d="M881.506,531.186a6.079,6.079,0,0,1-2.273-.427,6.232,6.232,0,0,1-3.549-4.259l-4.372-15.452a24.631,24.631,0,0,0-7.263-12.222c-7.263-6.291-19.114-5.679-31.722,1.656L810.84,512.971l-1.857-.869,7.68-41.1c9.583-51.289,26.65-103.607,50.723-155.5l21.82-47.035c4.14-8.935,10.838-16.517,17.905-20.272l59.35-31.563c3.21-1.713,6.3-1.862,8.672-.432,2.438,1.461,3.781,4.352,3.781,8.143v98.273c0,2.449.844,4.125,2.32,4.624l8.966,3c2.947.982,4.706,4,4.706,8.071v80.881a17.691,17.691,0,0,1-8.117,14.068l-16.568,9.573c-4.743,2.737-8.971,8.688-10.519,14.814l-6.666,26.362c-1.265,5.01-4.773,9.907-8.729,12.2l-58.249,33.625A9.215,9.215,0,0,1,881.506,531.186Zm-29.952-39.7a21.529,21.529,0,0,1,14.47,5.056,27.48,27.48,0,0,1,8.2,13.677l4.372,15.452a3.272,3.272,0,0,0,1.78,2.279c1.085.447,2.577.175,4.171-.741l58.244-33.63c3.3-1.9,6.239-6.049,7.315-10.319L956.77,456.9c1.739-6.867,6.533-13.569,11.944-16.686l16.563-9.573a14.844,14.844,0,0,0,6.615-11.455V338.308c0-2.747-.967-4.645-2.649-5.211l-8.966-3c-2.747-.916-4.382-3.714-4.382-7.484V224.341c0-2.69-.823-4.66-2.315-5.56-1.44-.859-3.467-.679-5.7.514l-59.349,31.563c-6.507,3.462-12.706,10.519-16.579,18.878l-21.82,47.03c-23.97,51.665-40.96,103.746-50.5,154.783l-6.877,36.819,18.06-10.5C838.108,493.626,845.232,491.491,851.553,491.491Z" transform="translate(-808.983 -215.226)" fill="#16110d"/>
      </g>
      <g id="Group_1533" data-name="Group 1533" transform="translate(128.709 112.01)">
        <path id="Path_1422" data-name="Path 1422" d="M946.864,224.364c0-4.3-2.942-6.132-6.661-4.151l-41.969,22.319c-6.559,3.493-14.516,14.233-18.394,22.592l-14.948,32.036c-23.142,49.88-39.8,100.937-49.01,150.241l-3.066,16.018,10.9-6.363c11.008-5.962,20.375-6.527,28.543-4.316,6.97,1.888,11.569,6.79,12.268,7.983,1.018,1.728,3.081,1.991,5.329.689l29.69-17.145a14.611,14.611,0,0,0,6.384-9.691l9.459-58.511a18.627,18.627,0,0,1,5-9.655l21.095-21.367c3.236-3.271,5.375-8.081,5.375-12.067Z" transform="translate(-810.707 -217.901)" fill="#1f5295"/>
        <path id="Path_1423" data-name="Path 1423" d="M812.406,467.616l3.688-19.284c9.29-49.679,25.817-100.346,49.124-150.586l14.953-32.041c3.976-8.575,12.186-19.629,19.058-23.286L941.192,220.1c2.258-1.209,4.439-1.3,6.162-.273,1.754,1.054,2.716,3.1,2.716,5.756V334.2c0,4.4-2.284,9.552-5.807,13.127L923.168,368.69a17.265,17.265,0,0,0-4.584,8.837l-9.464,58.511a16.031,16.031,0,0,1-7.114,10.761l-29.69,17.139c-2.978,1.718-5.946,1.219-7.386-1.23-.617-1.06-5.036-5.576-11.363-7.289-8.853-2.4-17.808-1.029-27.427,4.182Zm32.679-16.363a35.469,35.469,0,0,1,9.269,1.245c7.263,1.97,12.273,7.124,13.178,8.683.808,1.379,2.556.55,3.277.144l29.685-17.145a13.007,13.007,0,0,0,5.648-8.626l9.464-58.511a20.053,20.053,0,0,1,5.411-10.473l21.1-21.373c2.952-2.989,4.938-7.412,4.938-11V225.584c0-1.533-.458-2.69-1.255-3.163-.766-.473-1.9-.345-3.189.345l-41.963,22.319c-6.218,3.313-14.053,13.945-17.731,21.9l-14.953,32.041c-23.2,50.008-39.659,100.433-48.892,149.87l-2.443,12.767,8.035-4.686C831.716,453.147,838.46,451.254,845.085,451.254Z" transform="translate(-812.406 -219.122)" fill="#16110d"/>
      </g>
      <g id="Group_1535" data-name="Group 1535" transform="translate(175.857 112.014)">
        <g id="Group_1534" data-name="Group 1534">
          <path id="Path_1424" data-name="Path 1424" d="M901.715,220.212,897.8,222.3v106.9c0,3.992-2.14,8.8-5.37,12.073l-21.095,21.367a18.633,18.633,0,0,0-5,9.655l-9.46,58.511a14.6,14.6,0,0,1-6.378,9.691L822.1,456.88a17.414,17.414,0,0,1,3.94,3.842c1.018,1.728,3.081,1.991,5.329.689l29.69-17.145a14.611,14.611,0,0,0,6.384-9.691l9.459-58.511a18.608,18.608,0,0,1,5-9.655L903,345.043c3.236-3.271,5.375-8.081,5.375-12.067V224.364C908.376,220.068,905.434,218.232,901.715,220.212Z" transform="translate(-819.368 -217.905)" fill="#1f5295"/>
          <path id="Path_1425" data-name="Path 1425" d="M899.392,222.04l-3.914,2.083V326.367c0,3.992-2.14,8.8-5.37,12.073l-21.095,21.367a18.652,18.652,0,0,0-5,9.655l-9.46,58.511a14.605,14.605,0,0,1-6.378,9.691L822.8,452.309c2.191,1.651,2.942,2.412,3.3,3.024,1.018,1.728,2.1-1.337,4.357-2.639l26.475-14.109c3.091-1.79,7-7.726,7.623-11.584l8.77-47.143a18.593,18.593,0,0,1,5-9.65l22.35-22.957c3.236-3.277,5.375-8.081,5.375-12.073V226.2C906.054,221.9,903.111,220.06,899.392,222.04Z" transform="translate(-816.479 -210.33)" fill="#f2f2f2"/>
          <path id="Path_1426" data-name="Path 1426" d="M830.887,464.949a4.422,4.422,0,0,1-3.94-2.243,16.549,16.549,0,0,0-3.549-3.4l-1.826-1.378,30.364-17.53a13.007,13.007,0,0,0,5.648-8.621l9.465-58.511a20.053,20.053,0,0,1,5.417-10.478l21.09-21.367c2.953-2.989,4.943-7.412,4.943-11.008V222.6l4.712-2.5c2.258-1.2,4.439-1.3,6.162-.272,1.754,1.054,2.716,3.1,2.716,5.756V334.193c0,4.4-2.284,9.552-5.807,13.127l-21.095,21.367a17.263,17.263,0,0,0-4.583,8.837l-9.464,58.511a16.032,16.032,0,0,1-7.114,10.761l-29.69,17.139A6.936,6.936,0,0,1,830.887,464.949Zm-3.935-6.636a14.1,14.1,0,0,1,2.6,2.86c.8,1.363,2.556.561,3.277.149l29.685-17.145a13.007,13.007,0,0,0,5.648-8.626l9.464-58.511a20.052,20.052,0,0,1,5.411-10.473L904.13,345.2c2.953-2.989,4.938-7.412,4.938-11V225.581c0-1.533-.458-2.69-1.255-3.163-.766-.473-1.9-.345-3.189.345l-3.112,1.656V330.412c0,4.408-2.279,9.557-5.8,13.132l-21.095,21.367a17.234,17.234,0,0,0-4.588,8.837l-9.459,58.511a16.08,16.08,0,0,1-7.114,10.756Z" transform="translate(-821.572 -219.122)" fill="#16110d"/>
        </g>
      </g>
      <g id="Group_1536" data-name="Group 1536" transform="translate(128.709 340.374)">
        <path id="Path_1427" data-name="Path 1427" d="M828.875,270.669c.679-.283,1.363-.556,2.032-.792.618-.221,1.23-.417,1.837-.6.483-.144.957-.278,1.43-.406.71-.185,1.409-.365,2.1-.509l.18-.031a33.769,33.769,0,0,1,15.807.437l-10.576-3.781c-7.716-2.088-16.527-1.641-26.763,3.446l-2.109,11.013,10.9-6.363c1.255-.679,2.485-1.27,3.694-1.811C827.908,271.049,828.387,270.864,828.875,270.669Z" transform="translate(-810.707 -262.292)" fill="#076df2"/>
        <path id="Path_1428" data-name="Path 1428" d="M835.366,266.175c5.741-1.168,2.958-1.25,7.778.051l-1.944-.689c-7.716-2.094-16.527-1.641-26.764,3.441l-1.5,7.834,9.4-5.072C823.592,271.061,835.366,266.175,835.366,266.175Z" transform="translate(-810.218 -260.014)" fill="#f2f2f2"/>
        <path id="Path_1429" data-name="Path 1429" d="M812.406,283.648l2.876-15.01.668-.334c9.717-4.835,18.826-5.982,27.833-3.554l10.684,3.822-.9,2.875a32.488,32.488,0,0,0-15.113-.412c-.843.165-1.517.34-2.2.519-.448.124-.906.252-1.373.4-.581.175-1.173.36-1.774.571-.618.221-1.24.473-1.863.725l-.092.036-.5.206c-.3.124-.607.242-.921.381-1.178.525-2.366,1.1-3.585,1.764Zm5.56-12.962-1.342,7.006,8.035-4.686c1.327-.725,2.6-1.332,3.837-1.888.339-.159.684-.293,1.029-.432l.483-.2.108-.046c.669-.273,1.332-.535,1.985-.767.633-.226,1.271-.422,1.893-.617.5-.154,1-.293,1.487-.427.741-.19,1.471-.381,2.191-.53a41.288,41.288,0,0,1,4.522-.648C834.458,265.542,826.485,266.6,817.966,270.686Z" transform="translate(-812.406 -263.518)" fill="#16110d"/>
      </g>
      <path id="Path_1430" data-name="Path 1430" d="M860.075,253.985a3.857,3.857,0,0,0-2.464-.6,5.8,5.8,0,0,0-2.824.828l-15.442,8.914a8.479,8.479,0,0,0-1.363,1.265A12.909,12.909,0,0,0,834,271.8c-.324,2.438.345,4.408,1.826,5.4a3.747,3.747,0,0,0,2.14.633,5.883,5.883,0,0,0,2.9-.854l15.436-8.914a12.674,12.674,0,0,0,5.607-8.677C862.23,256.948,861.561,254.983,860.075,253.985Zm-19.212,11.327,15.436-8.919a3.392,3.392,0,0,1,1.379-.442,1.489,1.489,0,0,1,.71.118,2.591,2.591,0,0,1,.8,2.284,5.774,5.774,0,0,1-1,.725l-15.436,8.914a2.362,2.362,0,0,1-2.341.329,2.455,2.455,0,0,1-.777-2.047A6.962,6.962,0,0,1,840.863,265.312Zm14.181.571L839.6,274.792a2.332,2.332,0,0,1-2.377.319c-.638-.427-.915-1.564-.73-2.973a9.724,9.724,0,0,1,1.2-3.328,3.965,3.965,0,0,0,1.363,1.63,3.777,3.777,0,0,0,2.068.581,5.835,5.835,0,0,0,2.886-.849l14.49-8.364A9.492,9.492,0,0,1,855.044,265.883Z" transform="translate(-594.545 34.83)" fill="#1f5295"/>
      <g id="Group_1537" data-name="Group 1537" transform="translate(25.848 47.55)">
        <path id="Path_1431" data-name="Path 1431" d="M1005.533,250.834l.473-.252-74.673-43.656-46.315,24.639c-6.775,3.6-13.24,10.941-17.247,19.572l-21.815,47.035C822.4,348.937,802,416.712,792.409,466.941L873.46,515.18c9.547-50.625,30.05-118.848,53.8-170.05l21.82-47.03c4.007-8.631,10.473-15.972,17.247-19.577l45.328-24.109Z" transform="translate(-792.409 -205.198)" fill="#1f5295"/>
        <path id="Path_1432" data-name="Path 1432" d="M870.906,499.31l-78.165-46.037.2-1.049c9.675-50.672,26.594-102.244,50.271-153.3l21.82-47.035c4.146-8.93,10.833-16.512,17.911-20.267l47.056-25.035.725.427,77.008,45.024-47.719,25.374c-6.5,3.462-12.7,10.519-16.579,18.878l-21.82,47.035C897.8,394.643,880.88,446.411,871.3,497.2Zm-74.8-47.56,72.631,42.776c9.686-50.353,26.547-101.637,50.122-152.468l21.825-47.035c4.146-8.935,10.843-16.517,17.906-20.272l42.94-22.839-71.607-41.86L884.353,234.29c-6.507,3.462-12.71,10.514-16.584,18.873L845.949,300.2C822.529,350.669,805.77,401.654,796.11,451.75Z" transform="translate(-791.033 -206.59)" fill="#16110d"/>
      </g>
      <g id="Group_1538" data-name="Group 1538" transform="translate(27.556 47.55)">
        <path id="Path_1433" data-name="Path 1433" d="M806.375,443.948c9.593-50.235,23.831-88.942,47.385-139.711L875.58,257.2c4-8.631,10.468-15.966,17.242-19.572L926.7,219.138l64.648,37.792,11.923-6.347L928.6,206.926l-46.315,24.639c-6.775,3.6-13.24,10.941-17.247,19.572l-21.815,47.035c-23.554,50.764-40.564,102.712-50.157,152.941l75.4,44.407c.838-4.439,1.806-8.909,2.762-13.379Z" transform="translate(-791.386 -205.198)" fill="#113058"/>
        <path id="Path_1434" data-name="Path 1434" d="M806.1,254.038,792.792,261.2l75.4,44.407c.833-4.439,1.805-8.909,2.757-13.379Z" transform="translate(-792.53 -9.974)" fill="#f2f2f2"/>
        <path id="Path_1435" data-name="Path 1435" d="M870.906,499.31l-78.165-46.037.2-1.049c9.675-50.672,26.594-102.244,50.271-153.3l21.82-47.035c4.146-8.93,10.833-16.512,17.911-20.267l47.056-25.035.725.427,77.008,45.024-15.056,8.009-64.632-37.781L894.9,240.349c-6.533,3.472-12.731,10.529-16.6,18.878l-21.82,47.035c-21.537,46.423-36.948,85.825-47.066,138.312l64.874,38.213-.6,2.793c-.834,3.878-1.661,7.752-2.387,11.615Zm-74.8-47.56,72.636,42.776c.622-3.184,1.306-6.378,1.991-9.578l.139-.669L806.048,446.1l.2-1.049c10.185-53.316,25.724-93.119,47.5-140.061l21.82-47.03c4.141-8.93,10.833-16.507,17.906-20.272L928.085,218.8l64.653,37.792,8.8-4.676-71.607-41.86L884.353,234.29c-6.507,3.462-12.71,10.514-16.584,18.873L845.949,300.2C822.529,350.669,805.77,401.654,796.11,451.75Z" transform="translate(-792.741 -206.59)" fill="#16110d"/>
        <path id="Path_1436" data-name="Path 1436" d="M794.755,450.353l9.94-5.648,4.989-16.8,17.23-59.516,35.2-82.154,15.9-33.593,5.615-7.6,11.019-8.406,32.06-17.5,1.9-12.208-49.9,26.941-7,6.667-18.325,32.138-25.72,62.244L811.587,378.93l-18.519,69.5Z" transform="translate(-791.387 -205.196)" fill="#16110d"/>
      </g>
      <g id="Group_1539" data-name="Group 1539" transform="translate(186.785 187.707)">
        <rect id="Rectangle_2137" data-name="Rectangle 2137" width="77.11" height="3.025" transform="matrix(0.618, -0.787, 0.787, 0.618, 0, 60.652)" fill="#16110d"/>
      </g>
      <g id="Group_1540" data-name="Group 1540" transform="translate(183.106 249.037)">
        <rect id="Rectangle_2138" data-name="Rectangle 2138" width="44.251" height="3.02" transform="matrix(0.612, -0.791, 0.791, 0.612, 0, 34.999)" fill="#16110d"/>
      </g>
      <g id="Group_1541" data-name="Group 1541" transform="translate(159.637 256.016)">
        <path id="Path_1437" data-name="Path 1437" d="M820.788,275.595l-2.369-1.868,20.926-26.609,2.369,1.868Z" transform="translate(-818.419 -247.118)" fill="#16110d"/>
      </g>
      <g id="Group_1542" data-name="Group 1542" transform="translate(219.242 164.827)">
        <rect id="Rectangle_2139" data-name="Rectangle 2139" width="15.791" height="3.021" transform="matrix(0.612, -0.791, 0.791, 0.612, 0, 12.49)" fill="#16110d"/>
      </g>
      <g id="Group_1543" data-name="Group 1543" transform="translate(25.282 336.144)">
        <path id="Path_1438" data-name="Path 1438" d="M792.592,263.2v35.6l64.9,38.309V300.424Z" transform="translate(-791.084 -260.599)" fill="#ffbe2e"/>
        <path id="Path_1439" data-name="Path 1439" d="M792.486,264.755v26.7l64.895,38.309V301.978Z" transform="translate(-791.524 -254.16)" fill="#fbeacc"/>
        <path id="Path_1440" data-name="Path 1440" d="M860.213,341.853l-67.914-40.1V262.7l67.914,38.949Zm-64.9-41.814,61.88,36.521V303.4l-61.88-35.492Z" transform="translate(-792.299 -262.695)" fill="#16110d"/>
      </g>
      <g id="Group_1545" data-name="Group 1545" transform="translate(68.886 41.66)">
        <path id="Path_1441" data-name="Path 1441" d="M822.019,590.839,802.867,601.9l-.124-384.022L821.9,206.816Z" transform="translate(-792.625 -199.763)" fill="#16110d"/>
        <path id="Path_1442" data-name="Path 1442" d="M801.069,216.845l8.613,5.291,19.152-11.058-8.612-5.29Z" transform="translate(-799.564 -204.025)" fill="#076df2"/>
        <path id="Path_1443" data-name="Path 1443" d="M801.069,217.631l8.613,5.29V218.88l15.76-9.1-5.22-3.207Z" transform="translate(-799.564 -200.768)" fill="#fbeacc"/>
        <g id="Group_1544" data-name="Group 1544">
          <path id="Path_1444" data-name="Path 1444" d="M801.192,591.96l8.613,5.29-.124-384.022-8.613-5.291Z" transform="translate(-799.564 -195.117)" fill="#1f5295"/>
          <path id="Path_1445" data-name="Path 1445" d="M831.557,211.654l-10.1-6.209-20.683,11.949.118,385.74,10.1,6.2,20.688-11.939Zm-10.149-2.685,5.689,3.493-4.331,2.5L810.92,221.8l-5.689-3.493ZM803.914,601.442l-.123-380.478,5.6,3.441.031,77.636.087,302.837Zm8.518-299.365-.026-77.646,12.176-7.037,3.955-2.279.124,380.535-16.136,9.31Z" transform="translate(-800.776 -205.445)" fill="#16110d"/>
        </g>
      </g>
      <g id="Group_1546" data-name="Group 1546" transform="translate(130.163 92.406)">
        <path id="Path_1446" data-name="Path 1446" d="M854.979,243.242l-42.29-25.778L814,215.31l42.29,25.778Z" transform="translate(-812.689 -215.31)" fill="#16110d"/>
      </g>
      <g id="Group_1547" data-name="Group 1547" transform="translate(138.421 87.392)">
        <path id="Path_1447" data-name="Path 1447" d="M825.34,223.219l-11.046-6.73,1.308-2.153,11.045,6.73Z" transform="translate(-814.294 -214.336)" fill="#16110d"/>
      </g>
      <g id="Group_1548" data-name="Group 1548" transform="translate(154.18 96.703)">
        <rect id="Rectangle_2140" data-name="Rectangle 2140" width="2.512" height="6.405" transform="matrix(0.529, -0.849, 0.849, 0.529, 0, 2.132)" fill="#16110d"/>
      </g>
      <g id="Group_1549" data-name="Group 1549" transform="translate(112.13 183.878)">
        <path id="Path_1448" data-name="Path 1448" d="M835.257,251.675l-26.074-16.428,1.308-2.153,26.074,16.428Z" transform="translate(-809.183 -233.093)" fill="#16110d"/>
      </g>
      <g id="Group_1550" data-name="Group 1550" transform="translate(128.042 205.648)">
        <rect id="Rectangle_2141" data-name="Rectangle 2141" width="2.513" height="6.405" transform="matrix(0.529, -0.849, 0.849, 0.529, 0, 2.133)" fill="#16110d"/>
      </g>
      <path id="Path_1449" data-name="Path 1449" d="M855.691,252.274v3.6a12.156,12.156,0,0,1-5.406,9.357l-1.3.751v3.488l2.808-1.62a15.1,15.1,0,0,0,6.914-11.975v-5.344Z" transform="translate(-532.104 23.018)" fill="#1f5295"/>
      <g id="Group_1552" data-name="Group 1552">
        <path id="Path_1450" data-name="Path 1450" d="M808.627,582.74,789.475,593.8l-.123-384.023L808.5,198.717Z" transform="translate(-779.229 -191.664)" fill="#16110d"/>
        <path id="Path_1451" data-name="Path 1451" d="M787.678,208.746l8.613,5.29,19.152-11.058-8.612-5.29Z" transform="translate(-786.168 -195.926)" fill="#076df2"/>
        <path id="Path_1452" data-name="Path 1452" d="M787.678,209.532l8.613,5.29v-4.041l15.76-9.1-5.221-3.207Z" transform="translate(-786.168 -192.67)" fill="#fbeacc"/>
        <g id="Group_1551" data-name="Group 1551">
          <path id="Path_1453" data-name="Path 1453" d="M787.8,583.861l8.612,5.29-.123-384.023-8.613-5.29Z" transform="translate(-786.168 -187.018)" fill="#1f5295"/>
          <path id="Path_1454" data-name="Path 1454" d="M818.17,203.555l-10.1-6.209L787.384,209.3l.124,385.741,10.1,6.2,20.684-11.944Zm-10.149-2.69,5.684,3.5-4.326,2.5-11.846,6.831-5.689-3.488ZM790.527,593.343,790.4,212.865,796,216.3l.026,77.636.092,302.843Zm8.518-299.365-.031-77.646,12.18-7.037,3.956-2.279.124,380.535-16.136,9.311Z" transform="translate(-787.384 -197.346)" fill="#16110d"/>
        </g>
      </g>
      <path id="Path_1455" data-name="Path 1455" d="M839.327,279.688l-6.265,3.626a4.2,4.2,0,0,1-3.528.628,2.789,2.789,0,0,1-1.507-1.929l-2.952-10.427-2.376.988,2.865,10.133a5.264,5.264,0,0,0,3,3.606,5.116,5.116,0,0,0,1.924.36,7.813,7.813,0,0,0,3.858-1.147l4.979-2.886Z" transform="translate(-641.053 110.292)" fill="#076df2"/>
      <path id="Path_1456" data-name="Path 1456" d="M792.933,281.66l2.273,1.635.108-.063,0-10.509-2.382-1.446Z" transform="translate(-764.406 109.011)" fill="#ffbe2e"/>
      <path id="Path_1457" data-name="Path 1457" d="M792.985,261.246l2.273,1.634.053-9.731-2.382-1.447Z" transform="translate(-764.406 27.892)" fill="#1f5295"/>
      <path id="Path_1458" data-name="Path 1458" d="M806.379,242.326l2.273,1.635-.133-26.368-2.2-1.446Z" transform="translate(-708.916 -119.443)" fill="#076df2"/>
      <path id="Path_1459" data-name="Path 1459" d="M792.9,356.3l2.273,1.634-.1-157.4-2.2-1.447Z" transform="translate(-764.641 -190.134)" fill="#076df2"/>
      <path id="Path_1460" data-name="Path 1460" d="M806.35,227.358l2.273,1.634-.1-20.62-2.2-1.447Z" transform="translate(-708.916 -157.646)" fill="#076df2"/>
    </g>
    <g id="Group_1581" data-name="Group 1581" transform="translate(756.476 442.83)">
      <g id="_4" data-name="4">
        <g id="Group_1577" data-name="Group 1577">
          <g id="Group_1573" data-name="Group 1573" transform="translate(0 63.598)">
            <g id="Group_1562" data-name="Group 1562" transform="translate(0 27.813)">
              <g id="Group_1555" data-name="Group 1555" transform="translate(78.17)">
                <path id="Path_1461" data-name="Path 1461" d="M771.9,265.245v8.842l159.572,91.866v-8.579Z" transform="translate(-770.734 -252.88)" fill="#d5d5d5"/>
                <g id="Group_1554" data-name="Group 1554">
                  <path id="Path_1462" data-name="Path 1462" d="M931.472,366.25,771.9,274.121,790.985,263.1l159.572,92.128Z" transform="translate(-770.734 -261.756)" fill="#d5d5d5"/>
                  <path id="Path_1463" data-name="Path 1463" d="M928.912,363.294,772.517,273l15.908-9.184,156.818,90.539Z" transform="translate(-768.174 -258.801)" fill="#f2f2f2"/>
                  <path id="Path_1464" data-name="Path 1464" d="M952.664,356.993v-1.348h0l-1.168-.679L792.511,263.175l-.587-.334-19.083,11.018h0l-1.168.669h0v10.2l159.572,91.863,1.168.674h0l1.168-.674,19.084-10.992Zm-3.5-.674-4.593,2.649-12.16,7.016-56.649-32.71L775.176,275.207l16.748-9.67ZM774.009,283.375v-6.147l157.236,90.783V373.9Z" transform="translate(-771.673 -262.841)" fill="#414242"/>
                </g>
              </g>
              <g id="Group_1557" data-name="Group 1557" transform="translate(52.112 13.971)">
                <path id="Path_1465" data-name="Path 1465" d="M766.834,267.961V276.8l159.572,91.865v-8.578Z" transform="translate(-765.666 -255.594)" fill="#d5d5d5"/>
                <g id="Group_1556" data-name="Group 1556">
                  <path id="Path_1466" data-name="Path 1466" d="M926.406,368.967l-159.572-92.13,19.084-11.018,159.572,92.13Z" transform="translate(-765.666 -264.47)" fill="#d5d5d5"/>
                  <path id="Path_1467" data-name="Path 1467" d="M923.846,366.011,767.452,275.717l15.906-9.184,156.818,90.539Z" transform="translate(-763.106 -261.514)" fill="#f2f2f2"/>
                  <path id="Path_1468" data-name="Path 1468" d="M947.6,359.709v-1.348h0l-1.168-.674L787.445,265.9l-.587-.339-19.084,11.018h0l-1.168.674h0v10.2l159.572,91.863,1.168.674h0l1.167-.674,19.089-11Zm-3.508-.674L939.5,361.69l-12.154,7.016L870.692,336,770.11,277.923l16.748-9.665ZM768.942,286.091v-6.147l157.236,90.783v5.885Z" transform="translate(-766.607 -265.557)" fill="#414242"/>
                </g>
              </g>
              <g id="Group_1559" data-name="Group 1559" transform="translate(26.059 29.042)">
                <path id="Path_1469" data-name="Path 1469" d="M761.769,270.891v8.844L921.341,371.6v-8.578Z" transform="translate(-760.603 -258.527)" fill="#d5d5d5"/>
                <g id="Group_1558" data-name="Group 1558">
                  <path id="Path_1470" data-name="Path 1470" d="M921.341,371.9,761.769,279.767l19.085-11.018,159.572,92.13Z" transform="translate(-760.603 -267.403)" fill="#d5d5d5"/>
                  <path id="Path_1471" data-name="Path 1471" d="M918.78,368.941l-156.394-90.3,15.907-9.183L935.11,360Z" transform="translate(-758.042 -264.446)" fill="#f2f2f2"/>
                  <path id="Path_1472" data-name="Path 1472" d="M942.533,362.64v-1.348h0l-1.168-.674-158.99-91.8-.581-.334-19.084,11.018h0l-1.167.674h0v10.19l159.567,91.863,1.173.674h0l1.168-.674,19.084-10.992Zm-3.5-.674-4.594,2.649-12.16,7.016-56.649-32.71L765.045,280.853l16.748-9.67ZM763.877,289.021v-6.147l157.231,90.783v5.884Z" transform="translate(-761.542 -268.487)" fill="#414242"/>
                </g>
              </g>
              <g id="Group_1561" data-name="Group 1561" transform="translate(0 44.155)">
                <path id="Path_1473" data-name="Path 1473" d="M756.7,273.829v8.843l159.573,91.865v-8.58Z" transform="translate(-755.535 -261.464)" fill="#d5d5d5"/>
                <g id="Group_1560" data-name="Group 1560">
                  <path id="Path_1474" data-name="Path 1474" d="M916.276,374.834,756.7,282.705l19.084-11.019,159.574,92.13Z" transform="translate(-755.535 -270.341)" fill="#d5d5d5"/>
                  <path id="Path_1475" data-name="Path 1475" d="M913.716,371.878l-156.4-90.294,15.907-9.184,156.819,90.539Z" transform="translate(-752.975 -267.385)" fill="#f2f2f2"/>
                  <path id="Path_1476" data-name="Path 1476" d="M937.472,365.572V364.23h0l-1.168-.674-158.991-91.8-.586-.334-19.083,11.018h0l-1.168.674h0v10.2L916.048,385.17l1.173.674h0l1.168-.674,19.084-10.992Zm-3.5-.674-4.593,2.654-12.16,7.016-56.654-32.709L759.984,283.786l16.743-9.665ZM758.811,291.954v-6.142L916.048,376.6v5.885Z" transform="translate(-756.476 -271.425)" fill="#414242"/>
                </g>
              </g>
            </g>
            <g id="Group_1571" data-name="Group 1571">
              <g id="Group_1564" data-name="Group 1564" transform="translate(78.17)">
                <path id="Path_1477" data-name="Path 1477" d="M771.9,259.839v8.843l159.571,91.865v-8.579Z" transform="translate(-770.734 -247.47)" fill="#d5d5d5"/>
                <g id="Group_1563" data-name="Group 1563">
                  <path id="Path_1478" data-name="Path 1478" d="M931.471,360.843,771.9,268.715,790.984,257.7l159.572,92.129Z" transform="translate(-770.734 -256.347)" fill="#d5d5d5"/>
                  <path id="Path_1479" data-name="Path 1479" d="M928.911,357.887,772.517,267.593l15.907-9.183,156.817,90.538Z" transform="translate(-768.174 -253.39)" fill="#f2f2f2"/>
                  <path id="Path_1480" data-name="Path 1480" d="M952.664,351.587v-1.348h0l-1.168-.674-158.99-91.792-.582-.34-19.083,11.018h0l-1.168.674h0v10.2L931.24,371.184l1.173.674h0l1.168-.674,19.084-11Zm-3.5-.674-4.593,2.654-12.16,7.016-56.649-32.71L775.176,269.8l16.748-9.665ZM774.009,277.968v-6.142L931.24,362.6v5.885Z" transform="translate(-771.673 -257.434)" fill="#414242"/>
                </g>
              </g>
              <g id="Group_1566" data-name="Group 1566" transform="translate(52.112 13.976)">
                <path id="Path_1481" data-name="Path 1481" d="M766.834,262.555V271.4l159.572,91.865v-8.579Z" transform="translate(-765.667 -250.189)" fill="#d5d5d5"/>
                <g id="Group_1565" data-name="Group 1565">
                  <path id="Path_1482" data-name="Path 1482" d="M926.406,363.561,766.834,271.432l19.084-11.019L945.49,352.542Z" transform="translate(-765.667 -259.065)" fill="#d5d5d5"/>
                  <path id="Path_1483" data-name="Path 1483" d="M923.846,360.605,767.452,270.311l15.906-9.184,156.818,90.539Z" transform="translate(-763.107 -256.109)" fill="#f2f2f2"/>
                  <path id="Path_1484" data-name="Path 1484" d="M947.6,354.3v-1.348h0l-1.173-.674-158.99-91.8-.581-.334-19.084,11.018h0l-1.168.674h0v10.2L926.179,373.9l1.168.674h0l1.167-.669,19.089-11Zm-3.508-.674-4.594,2.649L927.347,363.3l-56.654-32.71L770.11,272.517l16.748-9.665ZM768.942,280.685v-6.147l157.236,90.783v5.885Z" transform="translate(-766.607 -260.151)" fill="#414242"/>
                </g>
              </g>
              <g id="Group_1568" data-name="Group 1568" transform="translate(26.059 29.042)">
                <path id="Path_1485" data-name="Path 1485" d="M761.769,265.484v8.843l159.573,91.867v-8.58Z" transform="translate(-760.603 -253.116)" fill="#d5d5d5"/>
                <g id="Group_1567" data-name="Group 1567">
                  <path id="Path_1486" data-name="Path 1486" d="M921.341,366.49,761.769,274.361l19.085-11.018,159.573,92.129Z" transform="translate(-760.603 -261.993)" fill="#d5d5d5"/>
                  <path id="Path_1487" data-name="Path 1487" d="M918.781,363.534,762.386,273.24l15.907-9.184,156.818,90.539Z" transform="translate(-758.043 -259.036)" fill="#f2f2f2"/>
                  <path id="Path_1488" data-name="Path 1488" d="M942.533,357.233v-1.348h0l-1.168-.674L782.375,263.42l-.581-.34L762.709,274.1h0l-1.167.674h0v10.2l159.567,91.858,1.173.679h0l1.168-.674,19.084-11Zm-3.5-.674-4.594,2.654-12.16,7.016-56.649-32.71L765.045,275.446l16.748-9.665ZM763.877,283.614v-6.142l157.231,90.778v5.885Z" transform="translate(-761.542 -263.08)" fill="#414242"/>
                </g>
              </g>
              <g id="Group_1570" data-name="Group 1570" transform="translate(0 44.155)">
                <path id="Path_1489" data-name="Path 1489" d="M756.7,268.422v8.844L916.275,369.13v-8.579Z" transform="translate(-755.535 -256.054)" fill="#d5d5d5"/>
                <g id="Group_1569" data-name="Group 1569">
                  <path id="Path_1490" data-name="Path 1490" d="M916.275,369.428,756.7,277.3l19.084-11.018L935.36,358.409Z" transform="translate(-755.535 -264.931)" fill="#d5d5d5"/>
                  <path id="Path_1491" data-name="Path 1491" d="M913.716,366.472,757.321,276.178l15.907-9.184,156.818,90.539Z" transform="translate(-752.975 -261.975)" fill="#f2f2f2"/>
                  <path id="Path_1492" data-name="Path 1492" d="M937.472,360.171v-1.348h0l-1.168-.674L777.313,266.358l-.586-.34-19.083,11.018h0l-1.168.674h0v10.2l159.572,91.863,1.173.674h0l1.163-.674,19.089-11Zm-3.508-.674-4.588,2.654-12.16,7.016-56.654-32.71L759.984,278.384l16.743-9.665ZM758.811,286.552V280.41l157.237,90.778v5.884Z" transform="translate(-756.476 -266.018)" fill="#414242"/>
                </g>
              </g>
            </g>
            <g id="Group_1572" data-name="Group 1572" transform="translate(16.938 73.078)">
              <path id="Path_1493" data-name="Path 1493" d="M779.33,302.521V283.155l24.164,13.974v19.2Z" transform="translate(-678.713 -223.927)" fill="#d5d5d5"/>
              <path id="Path_1494" data-name="Path 1494" d="M821.107,308.358,805.6,299.433v-1.348l-26.5-15.323v22.067l26.5,15.143v-2.685Zm-17.844,7.587-21.825-12.474V286.81l21.825,12.623Z" transform="translate(-679.652 -225.558)" fill="#414242"/>
              <path id="Path_1495" data-name="Path 1495" d="M760,290.9V272.038l24.163,14.115v18.81Z" transform="translate(-758.828 -269.998)" fill="#d5d5d5"/>
              <path id="Path_1496" data-name="Path 1496" d="M801.773,297.005l-15.509-8.924v-.957l-26.5-15.483v21.573l26.5,15.421v-2.7Zm-17.844,7.567L762.1,291.867V275.715l21.825,12.751Z" transform="translate(-759.769 -271.641)" fill="#414242"/>
              <path id="Path_1497" data-name="Path 1497" d="M769.434,296.342V277.48L793.6,291.6v18.809Z" transform="translate(-719.718 -247.446)" fill="#d5d5d5"/>
              <path id="Path_1498" data-name="Path 1498" d="M811.212,302.448l-15.5-8.93v-.952l-26.5-15.483v21.568l26.5,15.421v-2.7Zm-17.839,7.566-21.83-12.705V281.158l21.83,12.746Z" transform="translate(-720.66 -249.086)" fill="#414242"/>
            </g>
          </g>
          <g id="Group_1574" data-name="Group 1574" transform="translate(33.985)">
            <path id="Path_1499" data-name="Path 1499" d="M907.261,286.933l-71.947-41.538-71.947,41.538h0v83.077l71.948,41.539V328.684Z" transform="translate(-761.909 -243.726)" fill="#3d3fc2"/>
            <path id="Path_1500" data-name="Path 1500" d="M763.367,336.494l71.947,41.538V295.169l-71.946-41.751h0Z" transform="translate(-761.908 -210.479)" fill="#1f5295"/>
            <path id="Path_1501" data-name="Path 1501" d="M909.877,287.445,836.485,245.07l-73.171,42.251-.216.124v.005l-.015,1.651.015.005v83.078l71.947,41.536h0l1.44.833,1.445-.833h0l71.221-41.12.725-.417V289.106h0ZM836.485,248.4,870.3,267.924,801.235,307.8l-33.815-19.521ZM835.045,410.4l-69.066-39.875v-79.75l69.066,39.875Zm30.724-99.152-29.284,16.9L802.67,308.627l69.071-39.87,33.811,19.521Z" transform="translate(-763.083 -245.07)" fill="#113058"/>
            <path id="Path_1502" data-name="Path 1502" d="M787.7,268.338l-13.348-7.705a4.113,4.113,0,0,0-4.208-.226c-1.389.8-2.186,2.505-2.186,4.671,0,3.631,2.176,7.731,4.953,9.331l13.343,7.706a4.843,4.843,0,0,0,2.4.7,3.566,3.566,0,0,0,1.811-.484c1.389-.8,2.181-2.5,2.181-4.665C792.65,274.038,790.474,269.943,787.7,268.338Zm1.327,11.5c-.406.226-1.008-.041-1.327-.221l-13.348-7.705c-1.9-1.1-3.508-4.228-3.508-6.836,0-1.286.4-1.975.741-2.171.412-.242,1.009.041,1.327.226l.921.53c.329,3.128,2.186,6.394,4.516,7.742l11.394,6.574C789.682,279.048,789.353,279.655,789.029,279.84Z" transform="translate(-742.873 -183.496)"/>
          </g>
          <g id="Group_1576" data-name="Group 1576" transform="translate(140.025 78.268)">
            <g id="Group_1575" data-name="Group 1575">
              <path id="Path_1503" data-name="Path 1503" d="M828.252,342.283l-44.3-25.578V265.551l44.3,25.578Z" transform="translate(-782.651 -238.47)" fill="#427dc9"/>
              <path id="Path_1504" data-name="Path 1504" d="M872.553,286.155l-44.3,25.578-44.3-25.578,44.3-25.577Z" transform="translate(-782.65 -259.074)" fill="#1f5295"/>
              <path id="Path_1505" data-name="Path 1505" d="M868.95,287.15l-39.829,22.72-44.3-25.577,39.828-22.721Z" transform="translate(-779.048 -254.957)" fill="#7db0f2"/>
              <path id="Path_1506" data-name="Path 1506" d="M829.3,260.286,785,285.861l-1.307.8v52.611l44.3,25.58h0l1.3.751,1.3-.751h0l44.3-25.58V286.612Zm0,3L871,287.363l-20.93,12.088L829.3,311.441l-6.538-3.77-35.153-20.3Zm-43,74.483V289.621L828,313.7v48.146Z" transform="translate(-783.698 -260.286)" fill="#414242"/>
            </g>
            <path id="Path_1507" data-name="Path 1507" d="M797.51,290.764l-6.759-3.9a4.694,4.694,0,0,1-1.96-3.745v-7.109c0-1.446.874-2.109,1.96-1.481l6.759,3.9a4.679,4.679,0,0,1,1.96,3.745v7.1C799.469,290.723,798.6,291.386,797.51,290.764Z" transform="translate(-762.594 -202.264)" fill="#414242"/>
          </g>
        </g>
      </g>
      <g id="Group_1580" data-name="Group 1580" transform="translate(178.079 45.704)">
        <g id="Group_1578" data-name="Group 1578">
          <path id="Path_1508" data-name="Path 1508" d="M793.613,288.522l-2.517,1.519V255.474l2.517-1.519Z" transform="translate(-791.096 -253.955)" fill="#1f5295"/>
        </g>
        <g id="Group_1579" data-name="Group 1579" transform="translate(65.713 119.954)">
          <path id="Path_1509" data-name="Path 1509" d="M803.871,286.9l.1-2.79,11.866-6.838-.1,2.79Z" transform="translate(-803.871 -277.275)" fill="#d5d5d5"/>
        </g>
      </g>
    </g>
  </g>
</svg>
