<svg xmlns="http://www.w3.org/2000/svg" xmlns:xlink="http://www.w3.org/1999/xlink" width="944" height="764" viewBox="0 0 944 764">
  <defs>
    <clipPath id="clip-path">
      <rect id="Rectangle_2079" data-name="Rectangle 2079" width="944" height="764" transform="translate(-96 1547)" fill="#fff" stroke="#707070" stroke-width="1"/>
    </clipPath>
    <linearGradient id="linear-gradient" x1="0.5" x2="0.5" y2="1" gradientUnits="objectBoundingBox">
      <stop offset="0" stop-color="#fff" stop-opacity="0"/>
      <stop offset="1" stop-color="#fff"/>
    </linearGradient>
  </defs>
  <g id="Mask_Group_94" data-name="Mask Group 94" transform="translate(96 -1547)" clip-path="url(#clip-path)">
    <g id="Group_1025" data-name="Group 1025" transform="translate(-652.894 -990)">
      <g id="Group_882" data-name="Group 882" transform="translate(194.97 2520.853)">
        <path id="Path_420" data-name="Path 420" d="M168.116,866.023,1515.151,94.7V687.228L675.2,1180.483Z" transform="translate(-162.591 -92.176)" fill="#f2f2f2"/>
        <g id="Group_881" data-name="Group 881" transform="translate(865.909 493.582)">
          <path id="Path_422" data-name="Path 422" d="M449.846,639.723l661.878-383.982Z" transform="translate(-448.709 -254.34)" fill="#f2f2f2"/>
          <rect id="Rectangle_2067" data-name="Rectangle 2067" width="765.195" height="3.889" transform="translate(-198.03 500.422) rotate(-30.071)" fill="#414242"/>
        </g>
        <g id="Group_1023" data-name="Group 1023" transform="translate(85.879 337.582)">
          <path id="Path_422-2" data-name="Path 422" d="M449.846,639.723l661.878-383.982Z" transform="translate(-448.709 -254.34)" fill="#f2f2f2"/>
          <rect id="Rectangle_2067-2" data-name="Rectangle 2067" width="765.195" height="3.889" transform="translate(0 383.422) rotate(-30.071)" fill="#414242"/>
        </g>
        <g id="Group_1024" data-name="Group 1024" transform="translate(731.879 -32.418)">
          <path id="Path_422-3" data-name="Path 422" d="M449.846,639.723l661.878-383.982Z" transform="translate(-448.709 -254.34)" fill="#f2f2f2"/>
          <rect id="Rectangle_2067-3" data-name="Rectangle 2067" width="765.195" height="3.889" transform="translate(0 383.422) rotate(-30.071)" fill="#414242"/>
        </g>
        <rect id="Rectangle_2080" data-name="Rectangle 2080" width="1325" height="257" transform="translate(1050.924 1220.147) rotate(-90)" fill="url(#linear-gradient)"/>
        <rect id="Rectangle_2153" data-name="Rectangle 2153" width="1325" height="216" transform="translate(303.924 572.147)" fill="url(#linear-gradient)"/>
      </g>
      <g id="Group_901" data-name="Group 901" transform="translate(1298.851 2854.679)">
        <path id="Path_454" data-name="Path 454" d="M650.418,245.879,621.633,262.5a21.882,21.882,0,0,1-21.88,0l-28.785-16.62a6.088,6.088,0,0,1,0-10.544l36.68-21.176a6.083,6.083,0,0,1,6.088,0l36.68,21.176A6.088,6.088,0,0,1,650.418,245.879Z" transform="translate(-531.87 -114.839)" fill="#d5d5d5"/>
        <path id="Path_455" data-name="Path 455" d="M640.418,251.66l-28.785,16.62a21.9,21.9,0,0,1-21.88,0l-28.784-16.62a6.088,6.088,0,0,1,0-10.544l36.68-21.179a6.1,6.1,0,0,1,6.088,0l36.68,21.179A6.088,6.088,0,0,1,640.418,251.66Z" transform="translate(-552.449 -102.942)" fill="#d5d5d5"/>
        <g id="Group_900" data-name="Group 900">
          <g id="Group_896" data-name="Group 896" transform="translate(38.136 44.579)">
            <path id="Path_456" data-name="Path 456" d="M645.122,218.012,606.991,196l-38.132,22.016h0v44.031l38.132,22.015V240.14Z" transform="translate(-568.087 -195.115)" fill="#d5d5d5"/>
            <path id="Path_457" data-name="Path 457" d="M646.4,218.166l-38.894-22.458L568.728,218.1l-.116.067h0l-.006.878.006,0v44.029l38.133,22.017h0l.765.44.765-.44h0L646.021,263.3l.382-.223V219.046h0Zm-38.894-20.693,17.92,10.345-36.6,21.134L570.9,218.606Zm-.765,85.858-36.6-21.137V219.93l36.6,21.131Zm16.284-52.554-15.519,8.963-17.923-10.348,36.607-21.134,17.92,10.348Z" transform="translate(-568.606 -195.708)"/>
            <path id="Path_458" data-name="Path 458" d="M583.415,213.411l-7.073-4.082a2.178,2.178,0,0,0-2.232-.119,2.72,2.72,0,0,0-1.156,2.474,6.115,6.115,0,0,0,2.624,4.945l7.073,4.085a2.566,2.566,0,0,0,1.272.373,1.9,1.9,0,0,0,.96-.257,2.72,2.72,0,0,0,1.156-2.474A6.126,6.126,0,0,0,583.415,213.411Zm.7,6.1c-.214.119-.535-.024-.7-.119l-7.073-4.085a4.6,4.6,0,0,1-1.859-3.621c0-.682.211-1.046.391-1.15.217-.128.535.018.7.119l.486.281a5.657,5.657,0,0,0,2.394,4.1l6.039,3.486C584.464,219.086,584.29,219.407,584.119,219.508Zm.284-1.927-5.559-3.2a4.8,4.8,0,0,1-1.911-2.942l5.718,3.3A4.438,4.438,0,0,1,584.4,217.582Z" transform="translate(-559.658 -168.446)" fill="#414242"/>
            <path id="Path_459" data-name="Path 459" d="M597.618,213.483a1.193,1.193,0,0,0-1.232.067l-5.633,3.251a3.486,3.486,0,0,0-1.489,2.81v6.043a1.521,1.521,0,0,0,.642,1.379,1.053,1.053,0,0,0,.523.138,1.4,1.4,0,0,0,.706-.208l5.633-3.251h0a3.486,3.486,0,0,0,1.489-2.81v-6.039A1.515,1.515,0,0,0,597.618,213.483Z" transform="translate(-526.093 -159.418)" fill="#4183db"/>
          </g>
          <g id="Group_897" data-name="Group 897" transform="translate(0 66.648)">
            <path id="Path_460" data-name="Path 460" d="M632.651,225.23,594.52,203.214,556.387,225.23h0v44.031l38.132,22.015V247.358Z" transform="translate(-555.616 -202.33)" fill="#1f5295"/>
            <path id="Path_461" data-name="Path 461" d="M556.387,254.5l38.132,22.016V232.6l-38.132-22.128h0Z" transform="translate(-555.616 -187.403)" fill="#113058"/>
            <path id="Path_462" data-name="Path 462" d="M633.936,225.386l-38.9-22.461-38.781,22.39-.116.07h0l-.006.878.006,0v44.029l38.133,22.017h0l.765.44.765-.44h0l37.751-21.794.382-.223V226.266h0Zm-38.9-20.7,17.923,10.348-36.607,21.134-17.923-10.345Zm-.765,85.858-36.6-21.134V227.147l36.6,21.134ZM610.558,238l-15.519,8.96-17.923-10.345,36.607-21.134,17.92,10.348Z" transform="translate(-556.135 -202.925)"/>
            <path id="Path_463" data-name="Path 463" d="M570.944,220.63l-7.073-4.085a2.185,2.185,0,0,0-2.232-.119,2.725,2.725,0,0,0-1.156,2.477,6.127,6.127,0,0,0,2.624,4.945l7.073,4.082a2.534,2.534,0,0,0,1.272.373,1.927,1.927,0,0,0,.96-.254,2.723,2.723,0,0,0,1.156-2.474A6.122,6.122,0,0,0,570.944,220.63Zm.7,6.095c-.214.122-.535-.021-.7-.119l-7.073-4.082a4.6,4.6,0,0,1-1.859-3.621c0-.685.211-1.049.392-1.153.217-.128.535.021.7.119l.489.284a5.639,5.639,0,0,0,2.395,4.1l6.036,3.483C571.993,226.306,571.819,226.627,571.647,226.725Z" transform="translate(-547.187 -175.663)"/>
            <path id="Path_464" data-name="Path 464" d="M585.145,220.7a1.2,1.2,0,0,0-1.232.07l-5.633,3.251a3.487,3.487,0,0,0-1.486,2.81v6.04a1.521,1.521,0,0,0,.639,1.382,1.053,1.053,0,0,0,.523.138,1.388,1.388,0,0,0,.706-.208l5.633-3.251h0a3.492,3.492,0,0,0,1.486-2.813V222.08A1.518,1.518,0,0,0,585.145,220.7Z" transform="translate(-513.62 -166.633)" fill="#1f5295"/>
          </g>
          <g id="Group_898" data-name="Group 898" transform="translate(38.133)">
            <path id="Path_465" data-name="Path 465" d="M645.121,203.434l-38.132-22.016-38.132,22.016h0v44.031l38.132,22.015V225.562Z" transform="translate(-568.086 -180.536)" fill="#4183db"/>
            <path id="Path_466" data-name="Path 466" d="M568.855,232.649l38.132,22.016V210.746l-38.132-22.128h0Z" transform="translate(-568.09 -165.72)" fill="#1f5295"/>
            <path id="Path_467" data-name="Path 467" d="M646.4,203.588,607.508,181.13l-38.781,22.39-.116.067h0l-.006.878.006,0V248.5l38.133,22.017h0l.764.44.765-.44h0L646.02,248.72l.382-.223V204.468h0Zm-38.894-20.693,17.92,10.348-36.6,21.131L570.9,204.028Zm-.764,85.858-36.6-21.134V205.352l36.6,21.13ZM623.028,216.2l-15.519,8.96-17.923-10.348,36.6-21.134,17.923,10.348Z" transform="translate(-568.605 -181.13)"/>
            <path id="Path_468" data-name="Path 468" d="M583.416,198.832l-7.073-4.082a2.185,2.185,0,0,0-2.232-.119,2.722,2.722,0,0,0-1.159,2.474,6.117,6.117,0,0,0,2.627,4.945l7.073,4.085a2.566,2.566,0,0,0,1.272.373,1.9,1.9,0,0,0,.96-.257,2.72,2.72,0,0,0,1.156-2.474A6.127,6.127,0,0,0,583.416,198.832Zm.7,6.1a.805.805,0,0,1-.7-.119l-7.073-4.085a4.6,4.6,0,0,1-1.862-3.621c0-.682.211-1.046.394-1.15.217-.128.535.018.7.119l.486.281a5.67,5.67,0,0,0,2.394,4.1l6.04,3.483C584.465,204.511,584.291,204.829,584.12,204.93Z" transform="translate(-559.659 -153.868)"/>
            <path id="Path_469" data-name="Path 469" d="M597.617,198.9a1.194,1.194,0,0,0-1.232.067l-5.633,3.251a3.485,3.485,0,0,0-1.489,2.81v6.043a1.521,1.521,0,0,0,.642,1.379,1.016,1.016,0,0,0,.523.141,1.4,1.4,0,0,0,.706-.211l5.633-3.248h0a3.5,3.5,0,0,0,1.489-2.813v-6.039A1.516,1.516,0,0,0,597.617,198.9Z" transform="translate(-526.091 -144.84)" fill="#4183db"/>
          </g>
          <g id="Group_899" data-name="Group 899" transform="translate(77.417 66.65)">
            <path id="Path_470" data-name="Path 470" d="M582.217,270.02l-.765.5V225.161l.194-.11,38.322-22.126,0,.88-37.748,21.8Z" transform="translate(-581.452 -202.925)" fill="#82d1f3"/>
          </g>
        </g>
      </g>
      <g id="Group_934" data-name="Group 934" transform="translate(1197.972 3090.949)">
        <path id="Path_510" data-name="Path 510" d="M679.268,333.862l-52.383,29.681a22.866,22.866,0,0,1-22.76-.119l-76.941-44.674a5.2,5.2,0,0,1,.049-9.021l63.8-36.151,88.287,51.264A5.2,5.2,0,0,1,679.268,333.862Z" transform="translate(-520.163 -227.148)" fill="#d5d5d5"/>
        <g id="_2" data-name="2" transform="translate(0 0)">
          <g id="Group_932" data-name="Group 932" transform="translate(0 26.861)">
            <g id="Group_921" data-name="Group 921" transform="translate(0.003 14.739)">
              <g id="Group_914" data-name="Group 914" transform="translate(41.429)">
                <path id="Path_511" data-name="Path 511" d="M536.9,274.141v4.687l84.574,48.689V322.97Z" transform="translate(-536.279 -267.587)" fill="#d5d5d5"/>
                <g id="Group_913" data-name="Group 913">
                  <path id="Path_512" data-name="Path 512" d="M621.471,326.9,536.9,278.072l10.115-5.84,84.574,48.829Z" transform="translate(-536.279 -271.517)" fill="#d5d5d5"/>
                  <path id="Path_513" data-name="Path 513" d="M620.338,325.592l-82.89-47.857,8.431-4.867,83.114,47.986Z" transform="translate(-535.146 -270.208)" fill="#f2f2f2"/>
                  <path id="Path_514" data-name="Path 514" d="M632.62,321.9v-.716h0l-.618-.358-84.265-48.649-.309-.18-10.116,5.841h0l-.617.358h0v5.4l84.571,48.689.621.358h0l.621-.358,10.113-5.828Zm-1.856-.358-2.434,1.4-6.443,3.719L591.86,309.33l-53.309-30.778,8.877-5.122ZM537.93,282.881v-3.257l83.336,48.114v3.119Z" transform="translate(-536.695 -271.998)" fill="#414242"/>
                </g>
              </g>
              <g id="Group_916" data-name="Group 916" transform="translate(27.616 7.406)">
                <path id="Path_515" data-name="Path 515" d="M532.381,276.563v4.687l84.574,48.689v-4.547Z" transform="translate(-531.76 -270.009)" fill="#d5d5d5"/>
                <g id="Group_915" data-name="Group 915">
                  <path id="Path_516" data-name="Path 516" d="M616.955,329.323l-84.574-48.829,10.115-5.84,84.574,48.829Z" transform="translate(-531.76 -273.939)" fill="#d5d5d5"/>
                  <path id="Path_517" data-name="Path 517" d="M615.822,328.014l-82.89-47.857,8.431-4.867,83.114,47.986Z" transform="translate(-530.627 -272.63)" fill="#f2f2f2"/>
                  <path id="Path_518" data-name="Path 518" d="M628.106,324.32v-.712h0l-.617-.358L543.223,274.6l-.312-.18L532.8,280.261h0l-.621.358h0v5.4l84.574,48.689.621.358h0l.618-.358,10.116-5.828Zm-1.856-.355-2.434,1.4-6.446,3.718-30.026-17.336-53.306-30.778,8.874-5.122ZM533.417,285.3v-3.257l83.336,48.114v3.119Z" transform="translate(-532.178 -274.42)" fill="#414242"/>
                </g>
              </g>
              <g id="Group_918" data-name="Group 918" transform="translate(13.81 15.394)">
                <path id="Path_519" data-name="Path 519" d="M527.865,279.175v4.687l84.574,48.689V328Z" transform="translate(-527.247 -272.622)" fill="#d5d5d5"/>
                <g id="Group_917" data-name="Group 917">
                  <path id="Path_520" data-name="Path 520" d="M612.439,331.934l-84.574-48.829,10.115-5.84,84.574,48.829Z" transform="translate(-527.247 -276.552)" fill="#d5d5d5"/>
                  <path id="Path_521" data-name="Path 521" d="M611.305,330.625l-82.89-47.857,8.43-4.867,83.114,47.986Z" transform="translate(-526.114 -275.243)" fill="#f2f2f2"/>
                  <path id="Path_522" data-name="Path 522" d="M623.588,326.932v-.713h0l-.618-.358-84.265-48.652-.309-.177-10.116,5.838h0l-.618.358h0v5.4l84.571,48.686.621.358h0l.621-.355,10.113-5.828Zm-1.856-.358-2.434,1.407-6.443,3.718-30.026-17.336-53.309-30.778,8.877-5.125ZM528.9,287.915v-3.257l83.336,48.114v3.119Z" transform="translate(-527.663 -277.032)" fill="#414242"/>
                </g>
              </g>
              <g id="Group_920" data-name="Group 920" transform="translate(0 23.403)">
                <path id="Path_523" data-name="Path 523" d="M523.349,281.794v4.687l84.574,48.689v-4.547Z" transform="translate(-522.731 -275.24)" fill="#d5d5d5"/>
                <g id="Group_919" data-name="Group 919">
                  <path id="Path_524" data-name="Path 524" d="M607.923,334.553l-84.574-48.829,10.115-5.84,84.574,48.829Z" transform="translate(-522.731 -279.17)" fill="#d5d5d5"/>
                  <path id="Path_525" data-name="Path 525" d="M606.79,333.245,523.9,285.388l8.431-4.868,83.114,47.986Z" transform="translate(-521.598 -277.861)" fill="#f2f2f2"/>
                  <path id="Path_526" data-name="Path 526" d="M619.072,329.551v-.713h0l-.618-.358-84.265-48.652-.309-.177-10.116,5.838h0l-.618.358h0v5.4l84.571,48.686.621.358h0l.621-.355,10.113-5.828Zm-1.856-.355-2.434,1.4-6.443,3.719-30.026-17.336L525,286.2l8.877-5.122Zm-92.834-38.662v-3.257l83.335,48.114v3.119Z" transform="translate(-523.147 -279.651)" fill="#414242"/>
                </g>
              </g>
            </g>
            <g id="Group_930" data-name="Group 930">
              <g id="Group_923" data-name="Group 923" transform="translate(41.432)">
                <path id="Path_527" data-name="Path 527" d="M536.9,269.322v4.687L621.471,322.7v-4.547Z" transform="translate(-536.279 -262.766)" fill="#d5d5d5"/>
                <g id="Group_922" data-name="Group 922">
                  <path id="Path_528" data-name="Path 528" d="M621.471,322.081,536.9,273.252l10.115-5.84,84.574,48.829Z" transform="translate(-536.279 -266.696)" fill="#d5d5d5"/>
                  <path id="Path_529" data-name="Path 529" d="M620.338,320.772l-82.89-47.856,8.43-4.867,83.114,47.986Z" transform="translate(-535.146 -265.388)" fill="#f2f2f2"/>
                  <path id="Path_530" data-name="Path 530" d="M632.62,317.081v-.716h0l-.618-.358-84.265-48.649-.309-.18-10.116,5.841h0l-.617.358h0v5.4l84.571,48.686.621.358h0l.621-.358,10.113-5.829Zm-1.856-.358-2.434,1.4-6.443,3.719-30.029-17.336-53.307-30.775,8.877-5.125ZM537.93,278.061V274.8l83.336,48.114v3.119Z" transform="translate(-536.695 -267.178)" fill="#414242"/>
                </g>
              </g>
              <g id="Group_925" data-name="Group 925" transform="translate(27.619 7.406)">
                <path id="Path_531" data-name="Path 531" d="M532.381,271.744v4.687l84.574,48.689v-4.547Z" transform="translate(-531.761 -265.188)" fill="#d5d5d5"/>
                <g id="Group_924" data-name="Group 924">
                  <path id="Path_532" data-name="Path 532" d="M616.955,324.5l-84.574-48.829,10.115-5.84,84.574,48.829Z" transform="translate(-531.761 -269.118)" fill="#d5d5d5"/>
                  <path id="Path_533" data-name="Path 533" d="M615.821,323.194l-82.89-47.856,8.431-4.868,83.114,47.986Z" transform="translate(-530.628 -267.81)" fill="#f2f2f2"/>
                  <path id="Path_534" data-name="Path 534" d="M628.106,319.5v-.716h0l-.617-.358L543.223,269.78l-.312-.18L532.8,275.441h0l-.621.358h0v5.4l84.574,48.686.621.358h0l.618-.358,10.116-5.829Zm-1.856-.358-2.434,1.4-6.446,3.718-30.026-17.336-53.306-30.775,8.874-5.125Zm-92.833-38.662v-3.257l83.336,48.114v3.119Z" transform="translate(-532.178 -269.6)" fill="#414242"/>
                </g>
              </g>
              <g id="Group_927" data-name="Group 927" transform="translate(13.813 15.394)">
                <path id="Path_535" data-name="Path 535" d="M527.865,274.355v4.687l84.574,48.689v-4.547Z" transform="translate(-527.247 -267.801)" fill="#d5d5d5"/>
                <g id="Group_926" data-name="Group 926">
                  <path id="Path_536" data-name="Path 536" d="M612.439,327.114l-84.574-48.829,10.115-5.84,84.574,48.829Z" transform="translate(-527.247 -271.731)" fill="#d5d5d5"/>
                  <path id="Path_537" data-name="Path 537" d="M611.306,325.805l-82.89-47.856,8.431-4.867,83.114,47.986Z" transform="translate(-526.114 -270.422)" fill="#f2f2f2"/>
                  <path id="Path_538" data-name="Path 538" d="M623.588,322.112V321.4h0l-.618-.358-84.265-48.652-.309-.177-10.116,5.841h0l-.618.355h0v5.4L612.234,332.5l.621.358h0l.618-.355,10.116-5.828Zm-1.856-.355-2.434,1.4-6.443,3.719-30.029-17.336-53.306-30.778,8.877-5.122ZM528.9,283.1v-3.257l83.336,48.114v3.119Z" transform="translate(-527.663 -272.212)" fill="#414242"/>
                </g>
              </g>
              <g id="Group_929" data-name="Group 929" transform="translate(0 23.403)">
                <path id="Path_539" data-name="Path 539" d="M523.349,276.975v4.687l84.574,48.689V325.8Z" transform="translate(-522.728 -270.419)" fill="#d5d5d5"/>
                <g id="Group_928" data-name="Group 928">
                  <path id="Path_540" data-name="Path 540" d="M607.923,329.734,523.349,280.9l10.115-5.84,84.574,48.829Z" transform="translate(-522.728 -274.35)" fill="#d5d5d5"/>
                  <path id="Path_541" data-name="Path 541" d="M606.789,328.425,523.9,280.568l8.431-4.867,83.114,47.986Z" transform="translate(-521.595 -273.041)" fill="#f2f2f2"/>
                  <path id="Path_542" data-name="Path 542" d="M619.074,324.731v-.713h0l-.618-.358-84.265-48.649-.312-.18-10.113,5.841h0l-.621.358h0v5.4l84.574,48.689.621.358h0l.618-.358,10.116-5.828Zm-1.856-.355-2.434,1.4-6.443,3.718-30.029-17.336-53.306-30.778,8.874-5.122Zm-92.834-38.662v-3.257l83.335,48.114v3.119Z" transform="translate(-523.146 -274.831)" fill="#414242"/>
                </g>
              </g>
            </g>
            <g id="Group_931" data-name="Group 931" transform="translate(8.978 38.732)">
              <path id="Path_543" data-name="Path 543" d="M543.521,300.373V290.109l12.807,7.406V307.69Z" transform="translate(-490.193 -258.718)" fill="#d5d5d5"/>
              <path id="Path_544" data-name="Path 544" d="M565.581,303.326l-8.22-4.731v-.712l-14.042-8.125v11.7l14.042,8.027v-1.425Zm-9.458,4.021-11.568-6.611V291.9l11.568,6.691Z" transform="translate(-490.609 -259.441)" fill="#414242"/>
              <path id="Path_545" data-name="Path 545" d="M526.284,290.194v-10l12.807,7.482v9.969Z" transform="translate(-525.665 -279.117)" fill="#d5d5d5"/>
              <path id="Path_546" data-name="Path 546" d="M548.344,293.287l-8.217-4.731v-.5l-14.045-8.208v11.434l14.045,8.174v-1.434Zm-9.455,4.012-11.568-6.734V282l11.568,6.758Z" transform="translate(-526.082 -279.844)" fill="#414242"/>
              <path id="Path_547" data-name="Path 547" d="M534.7,295.046v-10l12.807,7.481V302.5Z" transform="translate(-508.348 -269.131)" fill="#d5d5d5"/>
              <path id="Path_548" data-name="Path 548" d="M556.759,298.137l-8.22-4.731v-.5L534.5,284.7v11.431l14.042,8.174V302.87Zm-9.458,4.012-11.568-6.734v-8.559l11.568,6.755Z" transform="translate(-508.764 -269.857)" fill="#414242"/>
            </g>
          </g>
          <g id="Group_1594" data-name="Group 1594" transform="translate(27.012)">
            <path id="Path_465-2" data-name="Path 465" d="M645.121,203.434l-38.132-22.016-38.132,22.016h0v44.031l38.132,22.015V225.562Z" transform="translate(-568.086 -180.536)" fill="#4183db"/>
            <path id="Path_466-2" data-name="Path 466" d="M568.855,232.649l38.132,22.016V210.746l-38.132-22.128h0Z" transform="translate(-568.09 -165.72)" fill="#1f5295"/>
            <path id="Path_467-2" data-name="Path 467" d="M646.4,203.588,607.508,181.13l-38.781,22.39-.116.067h0l-.006.878.006,0V248.5l38.133,22.017h0l.764.44.765-.44h0L646.02,248.72l.382-.223V204.468h0Zm-38.894-20.693,17.92,10.348-36.6,21.131L570.9,204.028Zm-.764,85.858-36.6-21.134V205.352l36.6,21.13ZM623.028,216.2l-15.519,8.96-17.923-10.348,36.6-21.134,17.923,10.348Z" transform="translate(-568.605 -181.13)"/>
            <path id="Path_468-2" data-name="Path 468" d="M583.416,198.832l-7.073-4.082a2.185,2.185,0,0,0-2.232-.119,2.722,2.722,0,0,0-1.159,2.474,6.117,6.117,0,0,0,2.627,4.945l7.073,4.085a2.566,2.566,0,0,0,1.272.373,1.9,1.9,0,0,0,.96-.257,2.72,2.72,0,0,0,1.156-2.474A6.127,6.127,0,0,0,583.416,198.832Zm.7,6.1a.805.805,0,0,1-.7-.119l-7.073-4.085a4.6,4.6,0,0,1-1.862-3.621c0-.682.211-1.046.394-1.15.217-.128.535.018.7.119l.486.281a5.67,5.67,0,0,0,2.394,4.1l6.04,3.483C584.465,204.511,584.291,204.829,584.12,204.93Z" transform="translate(-559.659 -153.868)"/>
            <path id="Path_469-2" data-name="Path 469" d="M597.617,198.9a1.194,1.194,0,0,0-1.232.067l-5.633,3.251a3.485,3.485,0,0,0-1.489,2.81v6.043a1.521,1.521,0,0,0,.642,1.379,1.016,1.016,0,0,0,.523.141,1.4,1.4,0,0,0,.706-.211l5.633-3.248h0a3.5,3.5,0,0,0,1.489-2.813v-6.039A1.516,1.516,0,0,0,597.617,198.9Z" transform="translate(-526.091 -144.84)" fill="#4183db"/>
          </g>
        </g>
      </g>
      <g id="Group_944" data-name="Group 944" transform="translate(780 2783.912)">
        <path id="Path_554" data-name="Path 554" d="M900.229,323.132l-309.866,179.3a25.216,25.216,0,0,1-25.243,0L421.824,419.62a8.955,8.955,0,0,1,0-15.5L739.827,220.109a8.956,8.956,0,0,1,8.963,0L900.224,307.63A8.954,8.954,0,0,1,900.229,323.132Z" transform="translate(-410.89 -59.416)" fill="#d5d5d5"/>
        <g id="Group_943" data-name="Group 943">
          <g id="Group_940" data-name="Group 940">
            <g id="Group_939" data-name="Group 939">
              <path id="Path_555" data-name="Path 555" d="M561.741,465.12,416.027,380.992V220.447l145.713,84.128Z" transform="translate(-415.07 -54.548)" fill="#d5d5d5"/>
              <path id="Path_556" data-name="Path 556" d="M701.08,180.808,416.019,345.387l145.76,84.154,285.06-164.579Z" transform="translate(-415.095 -179.703)" fill="#d5d5d5"/>
              <path id="Path_557" data-name="Path 557" d="M416.72,220.162l-.923.777v172.8l19.544,11.283,9.3-5.924L539.3,453.75l4.195,13.719,18.01,10.4,1.921-.224V304.922l-144.85-83.687ZM434.5,402.324l-16.787-9.691v-9.08l4.428,2.557,15.727,9.08Zm127.01,73.331-16.4-9.47-3.372-11.025,19.772,11.416Zm0-11.3-1.172-.673-27.26-15.74v-5.509l-18.733-10.813v5.5l-49.468-28.561v-5.5l-18.737-10.817v5.509l-28.428-16.417V223.006l143.8,83.022Z" transform="translate(-415.797 -55.449)" fill="#414242"/>
              <path id="Path_558" data-name="Path 558" d="M698.438,181.915,416.829,344.579l143.906,82.947,281.547-162.56ZM559.209,412.959,434.448,342.384,698.413,189.876,822.68,261.623Z" transform="translate(-412.539 -176.207)" fill="#f2f2f2"/>
              <path id="Path_559" data-name="Path 559" d="M736.858,200.776,451.328,365.627l-.478.279V528.66l0,10.414.773.437,19.161-11.058,4.191-13.715L709.282,379.454l9,6.1,19.544-11.283V201.354ZM716.429,381.632l-5.209-3.3,2.869-1.655.216.457Z" transform="translate(-305.136 -116.657)" fill="#414242"/>
              <path id="Path_560" data-name="Path 560" d="M454.937,354.516l-.482.279v135.8l14.588-8.39.486-.279h0l9.882-5.679.353-.2v0l12.4-7.13.757-.395h0l10.24-5.924h0l12.314-7.076.844-.4h0l10.235-5.97h0l12.223-7.026.935-.4h0l10.239-6.024h0l12.135-6.976,1.023-.4h0l10.235-6.07h0l12.493-7.184.665-.383h0l1.135-.653,9.1-5.122v-.108l12.218-7.026.94-.4h0l10.235-6.024h0l12.131-6.972,1.027-.4h0l10.24-6.074h0l12.039-6.922,1.118-.4h0l10.235-6.128h0l11.952-6.872,1.206-.4h0l10.24-6.178h0l12.983-7.462h.175v-.1l9.757-5.608.478-.279V205.754ZM586.6,412.423l-.1.054V281.093l8.323-4.781V407.7ZM469.53,348.338l8.319-4.785V474.929l-8.319,4.685Zm10.235-5.887,11.242-6.461V467.009l-11.242.087Zm13.158,123.818V334.889l8.323-4.785V461.488Zm10.185-137.233,11.3-6.494V453.61l-11.241.091V329.035ZM516.32,452.824V321.44l8.319-4.785V448.039Zm10.094-137.188,11.383-6.544V440.215l-11.241.087V315.636Zm13.3,123.739V307.991l8.323-4.785V434.59Zm10-137.134,11.478-6.6V426.816l-11.242.091V302.241Zm13.395,123.685V294.542l8.319-4.785V421.145Zm9.911-137.08,11.566-6.652V413.167l-11.241.087V288.846Zm23.722-13.636,11.242-6.465V399.872l-11.242.087ZM609.9,399.032V267.644l8.319-4.781V394.251ZM619.9,261.9l11.482-6.6v131.18l-11.241.087V261.9Zm13.4,123.685V254.2l8.323-4.781V380.8Zm10.24-137.271,11.241-6.465v131.23l-11.241.087Zm13.158,123.826V240.746l8.319-4.781V367.353Zm10.235-137.275,11.242-6.465V359.683l-11.242.087ZM680.086,358.69V227.3l8.323-4.781V353.909Zm10.24-137.275,11.242-6.465v130.7l-11.242.087Zm13.158,123.548V213.852l8.319-4.785V340.281Zm-235.87,4.477V480.3l-11.242.087V355.9Z" transform="translate(-293.741 -100.939)" fill="#d5d5d5"/>
              <g id="Group_935" data-name="Group 935" transform="translate(36.486 15.478)">
                <path id="Path_561" data-name="Path 561" d="M429.645,219.686l8.462-4.9,120.93,69.041-8.426,4.865Z" transform="translate(-408.561 -87.906)" fill="#f2f2f2"/>
                <path id="Path_562" data-name="Path 562" d="M424.573,222.679l8.461-4.9,120.93,69.041-8.426,4.865Z" transform="translate(-424.573 -78.456)" fill="#f2f2f2"/>
                <path id="Path_563" data-name="Path 563" d="M434.959,216.658l8.461-4.9L564.35,280.8l-8.426,4.865Z" transform="translate(-391.783 -97.467)" fill="#f2f2f2"/>
                <path id="Path_564" data-name="Path 564" d="M440.16,213.547l8.461-4.9,120.93,69.041-8.426,4.865Z" transform="translate(-375.362 -107.29)" fill="#f2f2f2"/>
                <path id="Path_565" data-name="Path 565" d="M445.263,210.52l8.462-4.9,120.93,69.041-8.426,4.865Z" transform="translate(-359.248 -116.847)" fill="#f2f2f2"/>
                <path id="Path_566" data-name="Path 566" d="M450.577,207.492l8.461-4.9,120.93,69.041-8.426,4.865Z" transform="translate(-342.47 -126.409)" fill="#f2f2f2"/>
                <path id="Path_567" data-name="Path 567" d="M455.778,204.381l8.461-4.9,120.93,69.041-8.426,4.865Z" transform="translate(-326.05 -136.231)" fill="#f2f2f2"/>
                <path id="Path_568" data-name="Path 568" d="M461.125,201.445l8.461-4.9,120.93,69.041-8.426,4.865Z" transform="translate(-309.168 -145.502)" fill="#f2f2f2"/>
                <path id="Path_569" data-name="Path 569" d="M466.325,198.334l8.461-4.9,120.93,69.041-8.426,4.865Z" transform="translate(-292.748 -155.324)" fill="#f2f2f2"/>
                <path id="Path_570" data-name="Path 570" d="M471.76,195.307l8.461-4.9,120.93,69.041-8.426,4.864Z" transform="translate(-275.591 -164.882)" fill="#f2f2f2"/>
                <path id="Path_571" data-name="Path 571" d="M477.073,192.278l8.462-4.9,120.93,69.041-8.426,4.865Z" transform="translate(-258.813 -174.443)" fill="#f2f2f2"/>
                <path id="Path_572" data-name="Path 572" d="M482.274,189.167l8.461-4.9,120.93,69.041-8.426,4.864Z" transform="translate(-242.392 -184.265)" fill="#f2f2f2"/>
              </g>
              <path id="Path_573" data-name="Path 573" d="M562.43,431.487l-.478-.274L415.813,346.839l.857-1.584L701.733,180.542l.478.274,146.226,84.423v1.122ZM418.586,346.228,562.43,429.275,845.577,265.8,701.733,182.754Z" transform="translate(-415.746 -180.542)" fill="#414242"/>
              <path id="Path_574" data-name="Path 574" d="M809.3,255.789l-1.439-.831h0l-.012-.008L685.032,184.042l-.482-.279L640.516,209.3l-.166-.091-12.3,7.126.17.1-9.653,5.6-.366-.208-12.3,7.126.366.208-9.637,5.592-.3-.17-12.3,7.126.3.17-53.2,30.852-.071-.037-12.3,7.126.071.042-97.776,56.7L543.953,406.5l1.684.96h0l.478.27ZM430.512,339.63l5.945-8.843,118.629,69.56-8.976,5.18Zm100.637-64.7L652.4,344.161l-8.427,4.864L522.689,279.839Zm65.495-37.977,121.4,69.307-8.427,4.864L588.183,241.858Zm6.785,1.513,4.735-8.194.037-.021,121.473,69.294-9.712,5.6-.192-.108.067-.116Zm15.149-14.235,121.444,69.336-8.423,4.868-121.481-69.3Zm7,1.621,4.752-8.227,121.344,69.22-9.724,5.617-.037-.021.075-.129Zm14.95-14.347,121.494,69.365-8.423,4.864L632.064,216.415Zm143.411,56.71-8.423,4.864-121.473-69.29,8.464-4.9ZM669.862,200.8l4.756-8.227,120.887,68.962-9.574,5.529Zm6.323-9.537,8.46-4.9,120.82,69.423-8.036,4.64Zm97.4,82.926-9.574,5.529L647.72,213.33l4.752-8.227ZM674.4,331.46l-8.427,4.864L544.764,267.184l8.46-4.906ZM560.587,264.195l4.752-8.227L685.968,324.78l-9.574,5.529Zm6.319-9.537,8.464-4.9,3.629,2.07-.062.108,117.257,66.941-8.3,4.793Zm14.717-3.538L586.317,243l121.377,69.24L698.24,317.7Zm82.427,86.314-9.579,5.529L538.441,276.717l4.752-8.223Zm-214.576-9.246L564.9,394.681l-7.907,4.565L438.079,329.519l6.872-3.912Zm1.933-1.1,4.386-7.837,120.6,68.8-9.055,5.226Zm5.945-9.155,8.46-4.906,120.928,69.045-8.423,4.864Zm15.823-2.989,4.752-8.227,120.388,68.675-9.578,5.529Zm6.323-9.537,8.46-4.9,120.824,68.841-8.547,4.935Zm15.141-3.434,4.756-8.223,120.887,68.958-9.578,5.529Zm6.323-9.537,8.46-4.9,4.286,2.445-.038.062,116.883,66.733L622.2,361.6Zm15.37-3.164,4.714-8.165,121.007,69.028-9.5,5.488Z" transform="translate(-399.158 -170.372)" fill="#414242"/>
              <g id="Group_937" data-name="Group 937" transform="translate(10.464 181.758)">
                <path id="Path_580" data-name="Path 580" d="M545.017,435.991l-126.7-73.157V224.262l126.7,73.152ZM420.7,361.454l121.922,70.4V298.79L420.7,228.4Z" transform="translate(-418.314 -224.262)" fill="#414242"/>
              </g>
              <g id="Group_938" data-name="Group 938" transform="translate(70.489 219.35)">
                <path id="Path_581" data-name="Path 581" d="M435.141,368.965l-2.389-.008.28-135.653,2.389.008Z" transform="translate(-432.752 -233.304)" fill="#414242"/>
              </g>
              <path id="Path_582" data-name="Path 582" d="M437.729,253.924l-.208-.121a5.754,5.754,0,0,1,1.072,3.06c0,1.738-1.222,2.444-2.727,1.576l-6.294-3.634a6.032,6.032,0,0,1-2.727-4.727,1.715,1.715,0,0,1,1.073-1.821l-.208-.121c-2.4-1.384-4.349-.262-4.349,2.511a9.6,9.6,0,0,0,4.349,7.525l10.019,5.787c2.4,1.384,4.344.262,4.344-2.511A9.606,9.606,0,0,0,437.729,253.924Z" transform="translate(-391.915 31.007)" fill="#414242"/>
              <path id="Path_583" data-name="Path 583" d="M453.132,262.815l-.208-.121a5.755,5.755,0,0,1,1.073,3.06c0,1.742-1.222,2.445-2.727,1.576l-6.294-3.634a6.021,6.021,0,0,1-2.727-4.727,1.721,1.721,0,0,1,1.068-1.821l-.208-.121c-2.4-1.384-4.344-.262-4.344,2.511a9.606,9.606,0,0,0,4.344,7.525l10.023,5.787c2.4,1.384,4.344.262,4.344-2.511A9.606,9.606,0,0,0,453.132,262.815Z" transform="translate(-343.282 59.078)" fill="#414242"/>
            </g>
          </g>
          <g id="Group_1590" data-name="Group 1590" transform="translate(222.43 53.527)">
            <path id="Path_614" data-name="Path 614" d="M377.38,263.646V253.335l49.013,28.634-.958,9.582Z" transform="translate(-376.423 -224.483)" fill="#113058"/>
            <g id="Group_947" data-name="Group 947">
              <path id="Path_615" data-name="Path 615" d="M473.491,274.406l-48.055,27.745L377.38,274.406l48.055-27.745Z" transform="translate(-376.423 -245.554)" fill="#113058"/>
              <path id="Path_616" data-name="Path 616" d="M445.11,267.333l-31.925,18.432L381.26,267.333,413.185,248.9Z" transform="translate(-364.172 -238.481)" fill="#113058"/>
              <path id="Path_617" data-name="Path 617" d="M423.229,247.468l-45.151,26.068,47.753,27.918,45.454-26.242Zm0,42.822-27.24-16.771,27.24-19.445,31.439,17.486Z" transform="translate(-374.217 -243.007)" fill="#1f5295"/>
              <path id="Path_618" data-name="Path 618" d="M475.176,274.7h0l-.956-.553L426.163,246.4l-48.057,27.747h0l-.956.553h0v11.7l48.057,27.785.952.553h0l.961-.549,48.057-27.427V274.7Zm-49.969,37.276-46.14-26.679v-8.386l46.14,26.637Zm.956-10.086-46.14-26.637,46.14-26.641,46.14,26.641Z" transform="translate(-377.15 -246.395)"/>
              <path id="Path_619" data-name="Path 619" d="M447.045,269l1.439-.827L415.6,249.188l-.956-.553L380.8,268.175l33.842,19.536,29.186-16.85L447.045,269ZM415.6,251.4l29.053,16.776-4.989,2.881-24.064-13.6Zm-24.051,20.767,23.095-13.05,23.095,13.05L414.641,285.5Z" transform="translate(-365.628 -239.322)"/>
            </g>
          </g>
        </g>
      </g>
    </g>
  </g>
</svg>
