<svg xmlns="http://www.w3.org/2000/svg" xmlns:xlink="http://www.w3.org/1999/xlink" width="411" height="75" viewBox="0 0 411 75">
  <defs>
    <clipPath id="clip-path">
      <rect width="411" height="75" fill="none"/>
    </clipPath>
  </defs>
  <g id="Repeat_Grid_2" data-name="Repeat Grid 2" clip-path="url(#clip-path)">
    <g transform="translate(1234 978)">
      <circle id="Ellipse_123" data-name="Ellipse 123" cx="2.5" cy="2.5" r="2.5" transform="translate(-1234 -978)" fill="#1f5295"/>
    </g>
    <g transform="translate(1264 978)">
      <circle id="Ellipse_123-2" data-name="Ellipse 123" cx="2.5" cy="2.5" r="2.5" transform="translate(-1234 -978)" fill="#1f5295"/>
    </g>
    <g transform="translate(1294 978)">
      <circle id="Ellipse_123-3" data-name="Ellipse 123" cx="2.5" cy="2.5" r="2.5" transform="translate(-1234 -978)" fill="#1f5295"/>
    </g>
    <g transform="translate(1324 978)">
      <circle id="Ellipse_123-4" data-name="Ellipse 123" cx="2.5" cy="2.5" r="2.5" transform="translate(-1234 -978)" fill="#1f5295"/>
    </g>
    <g transform="translate(1354 978)">
      <circle id="Ellipse_123-5" data-name="Ellipse 123" cx="2.5" cy="2.5" r="2.5" transform="translate(-1234 -978)" fill="#1f5295"/>
    </g>
    <g transform="translate(1384 978)">
      <circle id="Ellipse_123-6" data-name="Ellipse 123" cx="2.5" cy="2.5" r="2.5" transform="translate(-1234 -978)" fill="#1f5295"/>
    </g>
    <g transform="translate(1414 978)">
      <circle id="Ellipse_123-7" data-name="Ellipse 123" cx="2.5" cy="2.5" r="2.5" transform="translate(-1234 -978)" fill="#1f5295"/>
    </g>
    <g transform="translate(1444 978)">
      <circle id="Ellipse_123-8" data-name="Ellipse 123" cx="2.5" cy="2.5" r="2.5" transform="translate(-1234 -978)" fill="#1f5295"/>
    </g>
    <g transform="translate(1474 978)">
      <circle id="Ellipse_123-9" data-name="Ellipse 123" cx="2.5" cy="2.5" r="2.5" transform="translate(-1234 -978)" fill="#1f5295"/>
    </g>
    <g transform="translate(1504 978)">
      <circle id="Ellipse_123-10" data-name="Ellipse 123" cx="2.5" cy="2.5" r="2.5" transform="translate(-1234 -978)" fill="#1f5295"/>
    </g>
    <g transform="translate(1534 978)">
      <circle id="Ellipse_123-11" data-name="Ellipse 123" cx="2.5" cy="2.5" r="2.5" transform="translate(-1234 -978)" fill="#1f5295"/>
    </g>
    <g transform="translate(1564 978)">
      <circle id="Ellipse_123-12" data-name="Ellipse 123" cx="2.5" cy="2.5" r="2.5" transform="translate(-1234 -978)" fill="#1f5295"/>
    </g>
    <g transform="translate(1594 978)">
      <circle id="Ellipse_123-13" data-name="Ellipse 123" cx="2.5" cy="2.5" r="2.5" transform="translate(-1234 -978)" fill="#1f5295"/>
    </g>
    <g transform="translate(1624 978)">
      <circle id="Ellipse_123-14" data-name="Ellipse 123" cx="2.5" cy="2.5" r="2.5" transform="translate(-1234 -978)" fill="#1f5295"/>
    </g>
    <g transform="translate(1234 1008)">
      <circle id="Ellipse_123-15" data-name="Ellipse 123" cx="2.5" cy="2.5" r="2.5" transform="translate(-1234 -978)" fill="#1f5295"/>
    </g>
    <g transform="translate(1264 1008)">
      <circle id="Ellipse_123-16" data-name="Ellipse 123" cx="2.5" cy="2.5" r="2.5" transform="translate(-1234 -978)" fill="#1f5295"/>
    </g>
    <g transform="translate(1294 1008)">
      <circle id="Ellipse_123-17" data-name="Ellipse 123" cx="2.5" cy="2.5" r="2.5" transform="translate(-1234 -978)" fill="#1f5295"/>
    </g>
    <g transform="translate(1324 1008)">
      <circle id="Ellipse_123-18" data-name="Ellipse 123" cx="2.5" cy="2.5" r="2.5" transform="translate(-1234 -978)" fill="#1f5295"/>
    </g>
    <g transform="translate(1354 1008)">
      <circle id="Ellipse_123-19" data-name="Ellipse 123" cx="2.5" cy="2.5" r="2.5" transform="translate(-1234 -978)" fill="#1f5295"/>
    </g>
    <g transform="translate(1384 1008)">
      <circle id="Ellipse_123-20" data-name="Ellipse 123" cx="2.5" cy="2.5" r="2.5" transform="translate(-1234 -978)" fill="#1f5295"/>
    </g>
    <g transform="translate(1414 1008)">
      <circle id="Ellipse_123-21" data-name="Ellipse 123" cx="2.5" cy="2.5" r="2.5" transform="translate(-1234 -978)" fill="#1f5295"/>
    </g>
    <g transform="translate(1444 1008)">
      <circle id="Ellipse_123-22" data-name="Ellipse 123" cx="2.5" cy="2.5" r="2.5" transform="translate(-1234 -978)" fill="#1f5295"/>
    </g>
    <g transform="translate(1474 1008)">
      <circle id="Ellipse_123-23" data-name="Ellipse 123" cx="2.5" cy="2.5" r="2.5" transform="translate(-1234 -978)" fill="#1f5295"/>
    </g>
    <g transform="translate(1504 1008)">
      <circle id="Ellipse_123-24" data-name="Ellipse 123" cx="2.5" cy="2.5" r="2.5" transform="translate(-1234 -978)" fill="#1f5295"/>
    </g>
    <g transform="translate(1534 1008)">
      <circle id="Ellipse_123-25" data-name="Ellipse 123" cx="2.5" cy="2.5" r="2.5" transform="translate(-1234 -978)" fill="#1f5295"/>
    </g>
    <g transform="translate(1564 1008)">
      <circle id="Ellipse_123-26" data-name="Ellipse 123" cx="2.5" cy="2.5" r="2.5" transform="translate(-1234 -978)" fill="#1f5295"/>
    </g>
    <g transform="translate(1594 1008)">
      <circle id="Ellipse_123-27" data-name="Ellipse 123" cx="2.5" cy="2.5" r="2.5" transform="translate(-1234 -978)" fill="#1f5295"/>
    </g>
    <g transform="translate(1624 1008)">
      <circle id="Ellipse_123-28" data-name="Ellipse 123" cx="2.5" cy="2.5" r="2.5" transform="translate(-1234 -978)" fill="#1f5295"/>
    </g>
    <g transform="translate(1234 1038)">
      <circle id="Ellipse_123-29" data-name="Ellipse 123" cx="2.5" cy="2.5" r="2.5" transform="translate(-1234 -978)" fill="#1f5295"/>
    </g>
    <g transform="translate(1264 1038)">
      <circle id="Ellipse_123-30" data-name="Ellipse 123" cx="2.5" cy="2.5" r="2.5" transform="translate(-1234 -978)" fill="#1f5295"/>
    </g>
    <g transform="translate(1294 1038)">
      <circle id="Ellipse_123-31" data-name="Ellipse 123" cx="2.5" cy="2.5" r="2.5" transform="translate(-1234 -978)" fill="#1f5295"/>
    </g>
    <g transform="translate(1324 1038)">
      <circle id="Ellipse_123-32" data-name="Ellipse 123" cx="2.5" cy="2.5" r="2.5" transform="translate(-1234 -978)" fill="#1f5295"/>
    </g>
    <g transform="translate(1354 1038)">
      <circle id="Ellipse_123-33" data-name="Ellipse 123" cx="2.5" cy="2.5" r="2.5" transform="translate(-1234 -978)" fill="#1f5295"/>
    </g>
    <g transform="translate(1384 1038)">
      <circle id="Ellipse_123-34" data-name="Ellipse 123" cx="2.5" cy="2.5" r="2.5" transform="translate(-1234 -978)" fill="#1f5295"/>
    </g>
    <g transform="translate(1414 1038)">
      <circle id="Ellipse_123-35" data-name="Ellipse 123" cx="2.5" cy="2.5" r="2.5" transform="translate(-1234 -978)" fill="#1f5295"/>
    </g>
    <g transform="translate(1444 1038)">
      <circle id="Ellipse_123-36" data-name="Ellipse 123" cx="2.5" cy="2.5" r="2.5" transform="translate(-1234 -978)" fill="#1f5295"/>
    </g>
    <g transform="translate(1474 1038)">
      <circle id="Ellipse_123-37" data-name="Ellipse 123" cx="2.5" cy="2.5" r="2.5" transform="translate(-1234 -978)" fill="#1f5295"/>
    </g>
    <g transform="translate(1504 1038)">
      <circle id="Ellipse_123-38" data-name="Ellipse 123" cx="2.5" cy="2.5" r="2.5" transform="translate(-1234 -978)" fill="#1f5295"/>
    </g>
    <g transform="translate(1534 1038)">
      <circle id="Ellipse_123-39" data-name="Ellipse 123" cx="2.5" cy="2.5" r="2.5" transform="translate(-1234 -978)" fill="#1f5295"/>
    </g>
    <g transform="translate(1564 1038)">
      <circle id="Ellipse_123-40" data-name="Ellipse 123" cx="2.5" cy="2.5" r="2.5" transform="translate(-1234 -978)" fill="#1f5295"/>
    </g>
    <g transform="translate(1594 1038)">
      <circle id="Ellipse_123-41" data-name="Ellipse 123" cx="2.5" cy="2.5" r="2.5" transform="translate(-1234 -978)" fill="#1f5295"/>
    </g>
    <g transform="translate(1624 1038)">
      <circle id="Ellipse_123-42" data-name="Ellipse 123" cx="2.5" cy="2.5" r="2.5" transform="translate(-1234 -978)" fill="#1f5295"/>
    </g>
  </g>
</svg>
